<svg version="1.1" viewBox="0.0 0.0 427.15748031496065 370.1443569553806" fill="none" stroke="none" stroke-linecap="square" stroke-miterlimit="10" xmlns:xlink="http://www.w3.org/1999/xlink" xmlns="http://www.w3.org/2000/svg"><clipPath id="p.0"><path d="m0 0l427.15747 0l0 370.14435l-427.15747 0l0 -370.14435z" clip-rule="nonzero"/></clipPath><g clip-path="url(#p.0)"><path fill="#000000" fill-opacity="0.0" d="m0 0l427.15747 0l0 370.14435l-427.15747 0z" fill-rule="evenodd"/><path fill="#000000" fill-opacity="0.0" d="m37.08637 334.76642l-0.47244263 -213.03938" fill-rule="evenodd"/><path stroke="#f1c232" stroke-width="2.0" stroke-linejoin="round" stroke-linecap="butt" d="m37.08637 334.76642l-0.47244263 -213.03938" fill-rule="evenodd"/><path fill="#5abeff" d="m131.71654 63.650394l36.29921 0l0 36.236217l-36.29921 0z" fill-rule="evenodd"/><path fill="#4797cb" d="m168.01575 63.650394l12.078735 -12.078739l0 36.23622l-12.078735 12.078735z" fill-rule="evenodd"/><path fill="#7bcbff" d="m131.71654 63.650394l12.078735 -12.078739l36.29921 0l-12.078735 12.078739z" fill-rule="evenodd"/><path fill="#000000" fill-opacity="0.0" d="m131.71654 63.650394l12.078735 -12.078739l36.29921 0l0 36.23622l-12.078735 12.078735l-36.29921 0zm0 0l36.29921 0l12.078735 -12.078739m-12.078735 12.078739l0 36.236217" fill-rule="evenodd"/><path stroke="#434343" stroke-width="1.0" stroke-linejoin="round" stroke-linecap="butt" d="m131.71654 63.650394l12.078735 -12.078739l36.29921 0l0 36.23622l-12.078735 12.078735l-36.29921 0zm0 0l36.29921 0l12.078735 -12.078739m-12.078735 12.078739l0 36.236217" fill-rule="evenodd"/><path fill="#5abeff" d="m170.11653 63.650394l36.29921 0l0 36.236217l-36.29921 0z" fill-rule="evenodd"/><path fill="#4797cb" d="m206.41574 63.650394l12.078751 -12.078739l0 36.23622l-12.078751 12.078735z" fill-rule="evenodd"/><path fill="#7bcbff" d="m170.11653 63.650394l12.078751 -12.078739l36.29921 0l-12.078751 12.078739z" fill-rule="evenodd"/><path fill="#000000" fill-opacity="0.0" d="m170.11653 63.650394l12.078751 -12.078739l36.29921 0l0 36.23622l-12.078751 12.078735l-36.29921 0zm0 0l36.29921 0l12.078751 -12.078739m-12.078751 12.078739l0 36.236217" fill-rule="evenodd"/><path stroke="#434343" stroke-width="1.0" stroke-linejoin="round" stroke-linecap="butt" d="m170.11653 63.650394l12.078751 -12.078739l36.29921 0l0 36.23622l-12.078751 12.078735l-36.29921 0zm0 0l36.29921 0l12.078751 -12.078739m-12.078751 12.078739l0 36.236217" fill-rule="evenodd"/><path fill="#5abeff" d="m208.51654 63.650394l36.29921 0l0 36.236217l-36.29921 0z" fill-rule="evenodd"/><path fill="#4797cb" d="m244.81575 63.650394l12.078751 -12.078739l0 36.23622l-12.078751 12.078735z" fill-rule="evenodd"/><path fill="#7bcbff" d="m208.51654 63.650394l12.078735 -12.078739l36.299225 0l-12.078751 12.078739z" fill-rule="evenodd"/><path fill="#000000" fill-opacity="0.0" d="m208.51654 63.650394l12.078735 -12.078739l36.299225 0l0 36.23622l-12.078751 12.078735l-36.29921 0zm0 0l36.29921 0l12.078751 -12.078739m-12.078751 12.078739l0 36.236217" fill-rule="evenodd"/><path stroke="#434343" stroke-width="1.0" stroke-linejoin="round" stroke-linecap="butt" d="m208.51654 63.650394l12.078735 -12.078739l36.299225 0l0 36.23622l-12.078751 12.078735l-36.29921 0zm0 0l36.29921 0l12.078751 -12.078739m-12.078751 12.078739l0 36.236217" fill-rule="evenodd"/><path fill="#5abeff" d="m246.76588 63.65302l36.29921 0l0 36.236217l-36.29921 0z" fill-rule="evenodd"/><path fill="#4797cb" d="m283.0651 63.65302l12.078735 -12.078739l0 36.23622l-12.078735 12.078735z" fill-rule="evenodd"/><path fill="#7bcbff" d="m246.76588 63.65302l12.07872 -12.078739l36.299225 0l-12.078735 12.078739z" fill-rule="evenodd"/><path fill="#000000" fill-opacity="0.0" d="m246.76588 63.65302l12.07872 -12.078739l36.299225 0l0 36.23622l-12.078735 12.078735l-36.29921 0zm0 0l36.29921 0l12.078735 -12.078739m-12.078735 12.078739l0 36.236217" fill-rule="evenodd"/><path stroke="#434343" stroke-width="1.0" stroke-linejoin="round" stroke-linecap="butt" d="m246.76588 63.65302l12.07872 -12.078739l36.299225 0l0 36.23622l-12.078735 12.078735l-36.29921 0zm0 0l36.29921 0l12.078735 -12.078739m-12.078735 12.078739l0 36.236217" fill-rule="evenodd"/><path fill="#5abeff" d="m117.316536 78.05039l36.299217 0l0 36.23622l-36.299217 0z" fill-rule="evenodd"/><path fill="#4797cb" d="m153.61575 78.05039l12.078735 -12.078735l0 36.236214l-12.078735 12.078743z" fill-rule="evenodd"/><path fill="#7bcbff" d="m117.316536 78.05039l12.078743 -12.078735l36.29921 0l-12.078735 12.078735z" fill-rule="evenodd"/><path fill="#000000" fill-opacity="0.0" d="m117.316536 78.05039l12.078743 -12.078735l36.29921 0l0 36.236214l-12.078735 12.078743l-36.299217 0zm0 0l36.299217 0l12.078735 -12.078735m-12.078735 12.078735l0 36.23622" fill-rule="evenodd"/><path stroke="#434343" stroke-width="1.0" stroke-linejoin="round" stroke-linecap="butt" d="m117.316536 78.05039l12.078743 -12.078735l36.29921 0l0 36.236214l-12.078735 12.078743l-36.299217 0zm0 0l36.299217 0l12.078735 -12.078735m-12.078735 12.078735l0 36.23622" fill-rule="evenodd"/><path fill="#5abeff" d="m102.916534 92.45039l36.29921 0l0 36.23622l-36.29921 0z" fill-rule="evenodd"/><path fill="#4797cb" d="m139.21574 92.45039l12.078751 -12.078743l0 36.23622l-12.078751 12.078743z" fill-rule="evenodd"/><path fill="#7bcbff" d="m102.916534 92.45039l12.078743 -12.078743l36.299217 0l-12.078751 12.078743z" fill-rule="evenodd"/><path fill="#000000" fill-opacity="0.0" d="m102.916534 92.45039l12.078743 -12.078743l36.299217 0l0 36.23622l-12.078751 12.078743l-36.29921 0zm0 0l36.29921 0l12.078751 -12.078743m-12.078751 12.078743l0 36.23622" fill-rule="evenodd"/><path stroke="#434343" stroke-width="1.0" stroke-linejoin="round" stroke-linecap="butt" d="m102.916534 92.45039l12.078743 -12.078743l36.299217 0l0 36.23622l-12.078751 12.078743l-36.29921 0zm0 0l36.29921 0l12.078751 -12.078743m-12.078751 12.078743l0 36.23622" fill-rule="evenodd"/><path fill="#5abeff" d="m88.51653 106.850395l36.299217 0l0 36.236214l-36.299217 0z" fill-rule="evenodd"/><path fill="#4797cb" d="m124.81575 106.850395l12.078735 -12.078743l0 36.23622l-12.078735 12.078735z" fill-rule="evenodd"/><path fill="#7bcbff" d="m88.51653 106.850395l12.078743 -12.078743l36.29921 0l-12.078735 12.078743z" fill-rule="evenodd"/><path fill="#000000" fill-opacity="0.0" d="m88.51653 106.850395l12.078743 -12.078743l36.29921 0l0 36.23622l-12.078735 12.078735l-36.299217 0zm0 0l36.299217 0l12.078735 -12.078743m-12.078735 12.078743l0 36.236214" fill-rule="evenodd"/><path stroke="#434343" stroke-width="1.0" stroke-linejoin="round" stroke-linecap="butt" d="m88.51653 106.850395l12.078743 -12.078743l36.29921 0l0 36.23622l-12.078735 12.078735l-36.299217 0zm0 0l36.299217 0l12.078735 -12.078743m-12.078735 12.078743l0 36.236214" fill-rule="evenodd"/><path fill="#5abeff" d="m285.31653 217.2504l36.299225 0l0 36.23622l-36.299225 0z" fill-rule="evenodd"/><path fill="#4797cb" d="m321.61575 217.2504l12.078735 -12.078751l0 36.23622l-12.078735 12.078751z" fill-rule="evenodd"/><path fill="#7bcbff" d="m285.31653 217.2504l12.078735 -12.078751l36.299225 0l-12.078735 12.078751z" fill-rule="evenodd"/><path fill="#000000" fill-opacity="0.0" d="m285.31653 217.2504l12.078735 -12.078751l36.299225 0l0 36.23622l-12.078735 12.078751l-36.299225 0zm0 0l36.299225 0l12.078735 -12.078751m-12.078735 12.078751l0 36.23622" fill-rule="evenodd"/><path stroke="#434343" stroke-width="1.0" stroke-linejoin="round" stroke-linecap="butt" d="m285.31653 217.2504l12.078735 -12.078751l36.299225 0l0 36.23622l-12.078735 12.078751l-36.299225 0zm0 0l36.299225 0l12.078735 -12.078751m-12.078735 12.078751l0 36.23622" fill-rule="evenodd"/><path fill="#5abeff" d="m285.31653 178.85039l36.299225 0l0 36.23622l-36.299225 0z" fill-rule="evenodd"/><path fill="#4797cb" d="m321.61575 178.85039l12.078735 -12.078735l0 36.23622l-12.078735 12.078735z" fill-rule="evenodd"/><path fill="#7bcbff" d="m285.31653 178.85039l12.078735 -12.078735l36.299225 0l-12.078735 12.078735z" fill-rule="evenodd"/><path fill="#000000" fill-opacity="0.0" d="m285.31653 178.85039l12.078735 -12.078735l36.299225 0l0 36.23622l-12.078735 12.078735l-36.299225 0zm0 0l36.299225 0l12.078735 -12.078735m-12.078735 12.078735l0 36.23622" fill-rule="evenodd"/><path stroke="#434343" stroke-width="1.0" stroke-linejoin="round" stroke-linecap="butt" d="m285.31653 178.85039l12.078735 -12.078735l36.299225 0l0 36.23622l-12.078735 12.078735l-36.299225 0zm0 0l36.299225 0l12.078735 -12.078735m-12.078735 12.078735l0 36.23622" fill-rule="evenodd"/><path fill="#5abeff" d="m285.31653 140.4504l36.299225 0l0 36.23622l-36.299225 0z" fill-rule="evenodd"/><path fill="#4797cb" d="m321.61575 140.4504l12.078735 -12.078735l0 36.23622l-12.078735 12.078735z" fill-rule="evenodd"/><path fill="#7bcbff" d="m285.31653 140.4504l12.078735 -12.078735l36.299225 0l-12.078735 12.078735z" fill-rule="evenodd"/><path fill="#000000" fill-opacity="0.0" d="m285.31653 140.4504l12.078735 -12.078735l36.299225 0l0 36.23622l-12.078735 12.078735l-36.299225 0zm0 0l36.299225 0l12.078735 -12.078735m-12.078735 12.078735l0 36.23622" fill-rule="evenodd"/><path stroke="#434343" stroke-width="1.0" stroke-linejoin="round" stroke-linecap="butt" d="m285.31653 140.4504l12.078735 -12.078735l36.299225 0l0 36.23622l-12.078735 12.078735l-36.299225 0zm0 0l36.299225 0l12.078735 -12.078735m-12.078735 12.078735l0 36.23622" fill-rule="evenodd"/><path fill="#b6d7a8" d="m285.31653 102.05039l36.299225 0l0 36.23623l-36.299225 0z" fill-rule="evenodd"/><path fill="#91ab86" d="m321.61575 102.05039l12.078735 -12.078735l0 36.236214l-12.078735 12.078751z" fill-rule="evenodd"/><path fill="#c4dfb9" d="m285.31653 102.05039l12.078735 -12.078735l36.299225 0l-12.078735 12.078735z" fill-rule="evenodd"/><path fill="#000000" fill-opacity="0.0" d="m285.31653 102.05039l12.078735 -12.078735l36.299225 0l0 36.236214l-12.078735 12.078751l-36.299225 0zm0 0l36.299225 0l12.078735 -12.078735m-12.078735 12.078735l0 36.23623" fill-rule="evenodd"/><path stroke="#434343" stroke-width="1.0" stroke-linejoin="round" stroke-linecap="butt" d="m285.31653 102.05039l12.078735 -12.078735l36.299225 0l0 36.236214l-12.078735 12.078751l-36.299225 0zm0 0l36.299225 0l12.078735 -12.078735m-12.078735 12.078735l0 36.23623" fill-rule="evenodd"/><path fill="#5abeff" d="m285.31653 63.650394l36.299225 0l0 36.236217l-36.299225 0z" fill-rule="evenodd"/><path fill="#4797cb" d="m321.61575 63.650394l12.078735 -12.078739l0 36.23622l-12.078735 12.078735z" fill-rule="evenodd"/><path fill="#7bcbff" d="m285.31653 63.650394l12.078735 -12.078739l36.299225 0l-12.078735 12.078739z" fill-rule="evenodd"/><path fill="#000000" fill-opacity="0.0" d="m285.31653 63.650394l12.078735 -12.078739l36.299225 0l0 36.23622l-12.078735 12.078735l-36.299225 0zm0 0l36.299225 0l12.078735 -12.078739m-12.078735 12.078739l0 36.236217" fill-rule="evenodd"/><path stroke="#434343" stroke-width="1.0" stroke-linejoin="round" stroke-linecap="butt" d="m285.31653 63.650394l12.078735 -12.078739l36.299225 0l0 36.23622l-12.078735 12.078735l-36.299225 0zm0 0l36.299225 0l12.078735 -12.078739m-12.078735 12.078739l0 36.236217" fill-rule="evenodd"/><path fill="#5abeff" d="m270.91653 231.65039l36.299225 0l0 36.236237l-36.299225 0z" fill-rule="evenodd"/><path fill="#4797cb" d="m307.21576 231.65039l12.078735 -12.078735l0 36.23622l-12.078735 12.078751z" fill-rule="evenodd"/><path fill="#7bcbff" d="m270.91653 231.65039l12.078735 -12.078735l36.299225 0l-12.078735 12.078735z" fill-rule="evenodd"/><path fill="#000000" fill-opacity="0.0" d="m270.91653 231.65039l12.078735 -12.078735l36.299225 0l0 36.23622l-12.078735 12.078751l-36.299225 0zm0 0l36.299225 0l12.078735 -12.078735m-12.078735 12.078735l0 36.236237" fill-rule="evenodd"/><path stroke="#434343" stroke-width="1.0" stroke-linejoin="round" stroke-linecap="butt" d="m270.91653 231.65039l12.078735 -12.078735l36.299225 0l0 36.23622l-12.078735 12.078751l-36.299225 0zm0 0l36.299225 0l12.078735 -12.078735m-12.078735 12.078735l0 36.236237" fill-rule="evenodd"/><path fill="#5abeff" d="m270.91653 193.2504l36.299225 0l0 36.23622l-36.299225 0z" fill-rule="evenodd"/><path fill="#4797cb" d="m307.21576 193.2504l12.078735 -12.078751l0 36.23622l-12.078735 12.078751z" fill-rule="evenodd"/><path fill="#7bcbff" d="m270.91653 193.2504l12.078735 -12.078751l36.299225 0l-12.078735 12.078751z" fill-rule="evenodd"/><path fill="#000000" fill-opacity="0.0" d="m270.91653 193.2504l12.078735 -12.078751l36.299225 0l0 36.23622l-12.078735 12.078751l-36.299225 0zm0 0l36.299225 0l12.078735 -12.078751m-12.078735 12.078751l0 36.23622" fill-rule="evenodd"/><path stroke="#434343" stroke-width="1.0" stroke-linejoin="round" stroke-linecap="butt" d="m270.91653 193.2504l12.078735 -12.078751l36.299225 0l0 36.23622l-12.078735 12.078751l-36.299225 0zm0 0l36.299225 0l12.078735 -12.078751m-12.078735 12.078751l0 36.23622" fill-rule="evenodd"/><path fill="#5abeff" d="m270.91653 154.85039l36.299225 0l0 36.23622l-36.299225 0z" fill-rule="evenodd"/><path fill="#4797cb" d="m307.21576 154.85039l12.078735 -12.078735l0 36.23622l-12.078735 12.078735z" fill-rule="evenodd"/><path fill="#7bcbff" d="m270.91653 154.85039l12.078735 -12.078735l36.299225 0l-12.078735 12.078735z" fill-rule="evenodd"/><path fill="#000000" fill-opacity="0.0" d="m270.91653 154.85039l12.078735 -12.078735l36.299225 0l0 36.23622l-12.078735 12.078735l-36.299225 0zm0 0l36.299225 0l12.078735 -12.078735m-12.078735 12.078735l0 36.23622" fill-rule="evenodd"/><path stroke="#434343" stroke-width="1.0" stroke-linejoin="round" stroke-linecap="butt" d="m270.91653 154.85039l12.078735 -12.078735l36.299225 0l0 36.23622l-12.078735 12.078735l-36.299225 0zm0 0l36.299225 0l12.078735 -12.078735m-12.078735 12.078735l0 36.23622" fill-rule="evenodd"/><path fill="#b6d7a8" d="m270.91653 116.45039l36.299225 0l0 36.23622l-36.299225 0z" fill-rule="evenodd"/><path fill="#91ab86" d="m307.21576 116.45039l12.078735 -12.078743l0 36.23623l-12.078735 12.078735z" fill-rule="evenodd"/><path fill="#c4dfb9" d="m270.91653 116.45039l12.078735 -12.078743l36.299225 0l-12.078735 12.078743z" fill-rule="evenodd"/><path fill="#000000" fill-opacity="0.0" d="m270.91653 116.45039l12.078735 -12.078743l36.299225 0l0 36.23623l-12.078735 12.078735l-36.299225 0zm0 0l36.299225 0l12.078735 -12.078743m-12.078735 12.078743l0 36.23622" fill-rule="evenodd"/><path stroke="#434343" stroke-width="1.0" stroke-linejoin="round" stroke-linecap="butt" d="m270.91653 116.45039l12.078735 -12.078743l36.299225 0l0 36.23623l-12.078735 12.078735l-36.299225 0zm0 0l36.299225 0l12.078735 -12.078743m-12.078735 12.078743l0 36.23622" fill-rule="evenodd"/><path fill="#5abeff" d="m256.51654 246.0504l36.299194 0l0 36.23622l-36.299194 0z" fill-rule="evenodd"/><path fill="#4797cb" d="m292.81573 246.0504l12.078766 -12.078751l0 36.236237l-12.078766 12.078735z" fill-rule="evenodd"/><path fill="#7bcbff" d="m256.51654 246.0504l12.078735 -12.078751l36.299225 0l-12.078766 12.078751z" fill-rule="evenodd"/><path fill="#000000" fill-opacity="0.0" d="m256.51654 246.0504l12.078735 -12.078751l36.299225 0l0 36.236237l-12.078766 12.078735l-36.299194 0zm0 0l36.299194 0l12.078766 -12.078751m-12.078766 12.078751l0 36.23622" fill-rule="evenodd"/><path stroke="#434343" stroke-width="1.0" stroke-linejoin="round" stroke-linecap="butt" d="m256.51654 246.0504l12.078735 -12.078751l36.299225 0l0 36.236237l-12.078766 12.078735l-36.299194 0zm0 0l36.299194 0l12.078766 -12.078751m-12.078766 12.078751l0 36.23622" fill-rule="evenodd"/><path fill="#5abeff" d="m256.51654 207.65039l36.299194 0l0 36.23622l-36.299194 0z" fill-rule="evenodd"/><path fill="#4797cb" d="m292.81573 207.65039l12.078766 -12.078735l0 36.23622l-12.078766 12.078735z" fill-rule="evenodd"/><path fill="#7bcbff" d="m256.51654 207.65039l12.078735 -12.078735l36.299225 0l-12.078766 12.078735z" fill-rule="evenodd"/><path fill="#000000" fill-opacity="0.0" d="m256.51654 207.65039l12.078735 -12.078735l36.299225 0l0 36.23622l-12.078766 12.078735l-36.299194 0zm0 0l36.299194 0l12.078766 -12.078735m-12.078766 12.078735l0 36.23622" fill-rule="evenodd"/><path stroke="#434343" stroke-width="1.0" stroke-linejoin="round" stroke-linecap="butt" d="m256.51654 207.65039l12.078735 -12.078735l36.299225 0l0 36.23622l-12.078766 12.078735l-36.299194 0zm0 0l36.299194 0l12.078766 -12.078735m-12.078766 12.078735l0 36.23622" fill-rule="evenodd"/><path fill="#5abeff" d="m256.51654 169.2504l36.299194 0l0 36.23622l-36.299194 0z" fill-rule="evenodd"/><path fill="#4797cb" d="m292.81573 169.2504l12.078766 -12.078751l0 36.23622l-12.078766 12.078751z" fill-rule="evenodd"/><path fill="#7bcbff" d="m256.51654 169.2504l12.078735 -12.078751l36.299225 0l-12.078766 12.078751z" fill-rule="evenodd"/><path fill="#000000" fill-opacity="0.0" d="m256.51654 169.2504l12.078735 -12.078751l36.299225 0l0 36.23622l-12.078766 12.078751l-36.299194 0zm0 0l36.299194 0l12.078766 -12.078751m-12.078766 12.078751l0 36.23622" fill-rule="evenodd"/><path stroke="#434343" stroke-width="1.0" stroke-linejoin="round" stroke-linecap="butt" d="m256.51654 169.2504l12.078735 -12.078751l36.299225 0l0 36.23622l-12.078766 12.078751l-36.299194 0zm0 0l36.299194 0l12.078766 -12.078751m-12.078766 12.078751l0 36.23622" fill-rule="evenodd"/><path fill="#b6d7a8" d="m256.51654 130.85039l36.299194 0l0 36.23622l-36.299194 0z" fill-rule="evenodd"/><path fill="#91ab86" d="m292.81573 130.85039l12.078766 -12.078735l0 36.23622l-12.078766 12.078735z" fill-rule="evenodd"/><path fill="#c4dfb9" d="m256.51654 130.85039l12.078735 -12.078735l36.299225 0l-12.078766 12.078735z" fill-rule="evenodd"/><path fill="#000000" fill-opacity="0.0" d="m256.51654 130.85039l12.078735 -12.078735l36.299225 0l0 36.23622l-12.078766 12.078735l-36.299194 0zm0 0l36.299194 0l12.078766 -12.078735m-12.078766 12.078735l0 36.23622" fill-rule="evenodd"/><path stroke="#434343" stroke-width="1.0" stroke-linejoin="round" stroke-linecap="butt" d="m256.51654 130.85039l12.078735 -12.078735l36.299225 0l0 36.23622l-12.078766 12.078735l-36.299194 0zm0 0l36.299194 0l12.078766 -12.078735m-12.078766 12.078735l0 36.23622" fill-rule="evenodd"/><path fill="#5abeff" d="m242.11653 260.2504l36.29921 0l0 36.236206l-36.29921 0z" fill-rule="evenodd"/><path fill="#4797cb" d="m278.41574 260.2504l12.078735 -12.078751l0 36.23622l-12.078735 12.078735z" fill-rule="evenodd"/><path fill="#7bcbff" d="m242.11653 260.2504l12.078751 -12.078751l36.299194 0l-12.078735 12.078751z" fill-rule="evenodd"/><path fill="#000000" fill-opacity="0.0" d="m242.11653 260.2504l12.078751 -12.078751l36.299194 0l0 36.23622l-12.078735 12.078735l-36.29921 0zm0 0l36.29921 0l12.078735 -12.078751m-12.078735 12.078751l0 36.236206" fill-rule="evenodd"/><path stroke="#434343" stroke-width="1.0" stroke-linejoin="round" stroke-linecap="butt" d="m242.11653 260.2504l12.078751 -12.078751l36.299194 0l0 36.23622l-12.078735 12.078735l-36.29921 0zm0 0l36.29921 0l12.078735 -12.078751m-12.078735 12.078751l0 36.236206" fill-rule="evenodd"/><path fill="#5abeff" d="m242.11653 221.85039l36.29921 0l0 36.23622l-36.29921 0z" fill-rule="evenodd"/><path fill="#4797cb" d="m278.41574 221.85039l12.078735 -12.078735l0 36.23622l-12.078735 12.078735z" fill-rule="evenodd"/><path fill="#7bcbff" d="m242.11653 221.85039l12.078751 -12.078735l36.299194 0l-12.078735 12.078735z" fill-rule="evenodd"/><path fill="#000000" fill-opacity="0.0" d="m242.11653 221.85039l12.078751 -12.078735l36.299194 0l0 36.23622l-12.078735 12.078735l-36.29921 0zm0 0l36.29921 0l12.078735 -12.078735m-12.078735 12.078735l0 36.23622" fill-rule="evenodd"/><path stroke="#434343" stroke-width="1.0" stroke-linejoin="round" stroke-linecap="butt" d="m242.11653 221.85039l12.078751 -12.078735l36.299194 0l0 36.23622l-12.078735 12.078735l-36.29921 0zm0 0l36.29921 0l12.078735 -12.078735m-12.078735 12.078735l0 36.23622" fill-rule="evenodd"/><path fill="#5abeff" d="m242.11653 183.4504l36.29921 0l0 36.23622l-36.29921 0z" fill-rule="evenodd"/><path fill="#4797cb" d="m278.41574 183.4504l12.078735 -12.078735l0 36.23622l-12.078735 12.078735z" fill-rule="evenodd"/><path fill="#7bcbff" d="m242.11653 183.4504l12.078751 -12.078735l36.299194 0l-12.078735 12.078735z" fill-rule="evenodd"/><path fill="#000000" fill-opacity="0.0" d="m242.11653 183.4504l12.078751 -12.078735l36.299194 0l0 36.23622l-12.078735 12.078735l-36.29921 0zm0 0l36.29921 0l12.078735 -12.078735m-12.078735 12.078735l0 36.23622" fill-rule="evenodd"/><path stroke="#434343" stroke-width="1.0" stroke-linejoin="round" stroke-linecap="butt" d="m242.11653 183.4504l12.078751 -12.078735l36.299194 0l0 36.23622l-12.078735 12.078735l-36.29921 0zm0 0l36.29921 0l12.078735 -12.078735m-12.078735 12.078735l0 36.23622" fill-rule="evenodd"/><path fill="#b6d7a8" d="m242.11653 145.0504l36.29921 0l0 36.23622l-36.29921 0z" fill-rule="evenodd"/><path fill="#91ab86" d="m278.41574 145.0504l12.078735 -12.078751l0 36.23622l-12.078735 12.078751z" fill-rule="evenodd"/><path fill="#c4dfb9" d="m242.11653 145.0504l12.078751 -12.078751l36.299194 0l-12.078735 12.078751z" fill-rule="evenodd"/><path fill="#000000" fill-opacity="0.0" d="m242.11653 145.0504l12.078751 -12.078751l36.299194 0l0 36.23622l-12.078735 12.078751l-36.29921 0zm0 0l36.29921 0l12.078735 -12.078751m-12.078735 12.078751l0 36.23622" fill-rule="evenodd"/><path stroke="#434343" stroke-width="1.0" stroke-linejoin="round" stroke-linecap="butt" d="m242.11653 145.0504l12.078751 -12.078751l36.299194 0l0 36.23622l-12.078735 12.078751l-36.29921 0zm0 0l36.29921 0l12.078735 -12.078751m-12.078735 12.078751l0 36.23622" fill-rule="evenodd"/><path fill="#5abeff" d="m74.11654 274.8504l36.29921 0l0 36.236206l-36.29921 0z" fill-rule="evenodd"/><path fill="#4797cb" d="m110.41575 274.8504l12.078743 -12.078735l0 36.236206l-12.078743 12.078735z" fill-rule="evenodd"/><path fill="#7bcbff" d="m74.11654 274.8504l12.078735 -12.078735l36.299217 0l-12.078743 12.078735z" fill-rule="evenodd"/><path fill="#000000" fill-opacity="0.0" d="m74.11654 274.8504l12.078735 -12.078735l36.299217 0l0 36.236206l-12.078743 12.078735l-36.29921 0zm0 0l36.29921 0l12.078743 -12.078735m-12.078743 12.078735l0 36.236206" fill-rule="evenodd"/><path stroke="#434343" stroke-width="1.0" stroke-linejoin="round" stroke-linecap="butt" d="m74.11654 274.8504l12.078735 -12.078735l36.299217 0l0 36.236206l-12.078743 12.078735l-36.29921 0zm0 0l36.29921 0l12.078743 -12.078735m-12.078743 12.078735l0 36.236206" fill-rule="evenodd"/><path fill="#5abeff" d="m74.11654 236.4504l36.29921 0l0 36.23622l-36.29921 0z" fill-rule="evenodd"/><path fill="#4797cb" d="m110.41575 236.4504l12.078743 -12.078735l0 36.23622l-12.078743 12.078735z" fill-rule="evenodd"/><path fill="#7bcbff" d="m74.11654 236.4504l12.078735 -12.078735l36.299217 0l-12.078743 12.078735z" fill-rule="evenodd"/><path fill="#000000" fill-opacity="0.0" d="m74.11654 236.4504l12.078735 -12.078735l36.299217 0l0 36.23622l-12.078743 12.078735l-36.29921 0zm0 0l36.29921 0l12.078743 -12.078735m-12.078743 12.078735l0 36.23622" fill-rule="evenodd"/><path stroke="#434343" stroke-width="1.0" stroke-linejoin="round" stroke-linecap="butt" d="m74.11654 236.4504l12.078735 -12.078735l36.299217 0l0 36.23622l-12.078743 12.078735l-36.29921 0zm0 0l36.29921 0l12.078743 -12.078735m-12.078743 12.078735l0 36.23622" fill-rule="evenodd"/><path fill="#5abeff" d="m74.11654 198.0504l36.29921 0l0 36.23622l-36.29921 0z" fill-rule="evenodd"/><path fill="#4797cb" d="m110.41575 198.0504l12.078743 -12.078751l0 36.23622l-12.078743 12.078751z" fill-rule="evenodd"/><path fill="#7bcbff" d="m74.11654 198.0504l12.078735 -12.078751l36.299217 0l-12.078743 12.078751z" fill-rule="evenodd"/><path fill="#000000" fill-opacity="0.0" d="m74.11654 198.0504l12.078735 -12.078751l36.299217 0l0 36.23622l-12.078743 12.078751l-36.29921 0zm0 0l36.29921 0l12.078743 -12.078751m-12.078743 12.078751l0 36.23622" fill-rule="evenodd"/><path stroke="#434343" stroke-width="1.0" stroke-linejoin="round" stroke-linecap="butt" d="m74.11654 198.0504l12.078735 -12.078751l36.299217 0l0 36.23622l-12.078743 12.078751l-36.29921 0zm0 0l36.29921 0l12.078743 -12.078751m-12.078743 12.078751l0 36.23622" fill-rule="evenodd"/><path fill="#b6d7a8" d="m74.11654 159.65039l36.29921 0l0 36.23622l-36.29921 0z" fill-rule="evenodd"/><path fill="#91ab86" d="m110.41575 159.65039l12.078743 -12.078735l0 36.23622l-12.078743 12.078735z" fill-rule="evenodd"/><path fill="#c4dfb9" d="m74.11654 159.65039l12.078735 -12.078735l36.299217 0l-12.078743 12.078735z" fill-rule="evenodd"/><path fill="#000000" fill-opacity="0.0" d="m74.11654 159.65039l12.078735 -12.078735l36.299217 0l0 36.23622l-12.078743 12.078735l-36.29921 0zm0 0l36.29921 0l12.078743 -12.078735m-12.078743 12.078735l0 36.23622" fill-rule="evenodd"/><path stroke="#434343" stroke-width="1.0" stroke-linejoin="round" stroke-linecap="butt" d="m74.11654 159.65039l12.078735 -12.078735l36.299217 0l0 36.23622l-12.078743 12.078735l-36.29921 0zm0 0l36.29921 0l12.078743 -12.078735m-12.078743 12.078735l0 36.23622" fill-rule="evenodd"/><path fill="#5abeff" d="m74.11654 121.2504l36.29921 0l0 36.23622l-36.29921 0z" fill-rule="evenodd"/><path fill="#4797cb" d="m110.41575 121.2504l12.078743 -12.078743l0 36.236214l-12.078743 12.078751z" fill-rule="evenodd"/><path fill="#7bcbff" d="m74.11654 121.2504l12.078735 -12.078743l36.299217 0l-12.078743 12.078743z" fill-rule="evenodd"/><path fill="#000000" fill-opacity="0.0" d="m74.11654 121.2504l12.078735 -12.078743l36.299217 0l0 36.236214l-12.078743 12.078751l-36.29921 0zm0 0l36.29921 0l12.078743 -12.078743m-12.078743 12.078743l0 36.23622" fill-rule="evenodd"/><path stroke="#434343" stroke-width="1.0" stroke-linejoin="round" stroke-linecap="butt" d="m74.11654 121.2504l12.078735 -12.078743l36.299217 0l0 36.236214l-12.078743 12.078751l-36.29921 0zm0 0l36.29921 0l12.078743 -12.078743m-12.078743 12.078743l0 36.23622" fill-rule="evenodd"/><path fill="#ffe599" d="m112.51653 274.8504l36.299217 0l0 36.236206l-36.299217 0z" fill-rule="evenodd"/><path fill="#cbb77a" d="m148.81575 274.8504l12.078735 -12.078735l0 36.236206l-12.078735 12.078735z" fill-rule="evenodd"/><path fill="#ffeaad" d="m112.51653 274.8504l12.078743 -12.078735l36.29921 0l-12.078735 12.078735z" fill-rule="evenodd"/><path fill="#000000" fill-opacity="0.0" d="m112.51653 274.8504l12.078743 -12.078735l36.29921 0l0 36.236206l-12.078735 12.078735l-36.299217 0zm0 0l36.299217 0l12.078735 -12.078735m-12.078735 12.078735l0 36.236206" fill-rule="evenodd"/><path stroke="#434343" stroke-width="1.0" stroke-linejoin="round" stroke-linecap="butt" d="m112.51653 274.8504l12.078743 -12.078735l36.29921 0l0 36.236206l-12.078735 12.078735l-36.299217 0zm0 0l36.299217 0l12.078735 -12.078735m-12.078735 12.078735l0 36.236206" fill-rule="evenodd"/><path fill="#ffe599" d="m112.51653 236.4504l36.299217 0l0 36.23622l-36.299217 0z" fill-rule="evenodd"/><path fill="#cbb77a" d="m148.81575 236.4504l12.078735 -12.078735l0 36.23622l-12.078735 12.078735z" fill-rule="evenodd"/><path fill="#ffeaad" d="m112.51653 236.4504l12.078743 -12.078735l36.29921 0l-12.078735 12.078735z" fill-rule="evenodd"/><path fill="#000000" fill-opacity="0.0" d="m112.51653 236.4504l12.078743 -12.078735l36.29921 0l0 36.23622l-12.078735 12.078735l-36.299217 0zm0 0l36.299217 0l12.078735 -12.078735m-12.078735 12.078735l0 36.23622" fill-rule="evenodd"/><path stroke="#434343" stroke-width="1.0" stroke-linejoin="round" stroke-linecap="butt" d="m112.51653 236.4504l12.078743 -12.078735l36.29921 0l0 36.23622l-12.078735 12.078735l-36.299217 0zm0 0l36.299217 0l12.078735 -12.078735m-12.078735 12.078735l0 36.23622" fill-rule="evenodd"/><path fill="#ffe599" d="m112.51653 198.0504l36.299217 0l0 36.23622l-36.299217 0z" fill-rule="evenodd"/><path fill="#cbb77a" d="m148.81575 198.0504l12.078735 -12.078751l0 36.23622l-12.078735 12.078751z" fill-rule="evenodd"/><path fill="#ffeaad" d="m112.51653 198.0504l12.078743 -12.078751l36.29921 0l-12.078735 12.078751z" fill-rule="evenodd"/><path fill="#000000" fill-opacity="0.0" d="m112.51653 198.0504l12.078743 -12.078751l36.29921 0l0 36.23622l-12.078735 12.078751l-36.299217 0zm0 0l36.299217 0l12.078735 -12.078751m-12.078735 12.078751l0 36.23622" fill-rule="evenodd"/><path stroke="#434343" stroke-width="1.0" stroke-linejoin="round" stroke-linecap="butt" d="m112.51653 198.0504l12.078743 -12.078751l36.29921 0l0 36.23622l-12.078735 12.078751l-36.299217 0zm0 0l36.299217 0l12.078735 -12.078751m-12.078735 12.078751l0 36.23622" fill-rule="evenodd"/><path fill="#ffe599" d="m112.51653 159.65039l36.299217 0l0 36.23622l-36.299217 0z" fill-rule="evenodd"/><path fill="#cbb77a" d="m148.81575 159.65039l12.078735 -12.078735l0 36.23622l-12.078735 12.078735z" fill-rule="evenodd"/><path fill="#ffeaad" d="m112.51653 159.65039l12.078743 -12.078735l36.29921 0l-12.078735 12.078735z" fill-rule="evenodd"/><path fill="#000000" fill-opacity="0.0" d="m112.51653 159.65039l12.078743 -12.078735l36.29921 0l0 36.23622l-12.078735 12.078735l-36.299217 0zm0 0l36.299217 0l12.078735 -12.078735m-12.078735 12.078735l0 36.23622" fill-rule="evenodd"/><path stroke="#434343" stroke-width="1.0" stroke-linejoin="round" stroke-linecap="butt" d="m112.51653 159.65039l12.078743 -12.078735l36.29921 0l0 36.23622l-12.078735 12.078735l-36.299217 0zm0 0l36.299217 0l12.078735 -12.078735m-12.078735 12.078735l0 36.23622" fill-rule="evenodd"/><path fill="#5abeff" d="m150.91653 274.8504l36.29921 0l0 36.236206l-36.29921 0z" fill-rule="evenodd"/><path fill="#4797cb" d="m187.21574 274.8504l12.078751 -12.078735l0 36.236206l-12.078751 12.078735z" fill-rule="evenodd"/><path fill="#7bcbff" d="m150.91653 274.8504l12.078735 -12.078735l36.299225 0l-12.078751 12.078735z" fill-rule="evenodd"/><path fill="#000000" fill-opacity="0.0" d="m150.91653 274.8504l12.078735 -12.078735l36.299225 0l0 36.236206l-12.078751 12.078735l-36.29921 0zm0 0l36.29921 0l12.078751 -12.078735m-12.078751 12.078735l0 36.236206" fill-rule="evenodd"/><path stroke="#434343" stroke-width="1.0" stroke-linejoin="round" stroke-linecap="butt" d="m150.91653 274.8504l12.078735 -12.078735l36.299225 0l0 36.236206l-12.078751 12.078735l-36.29921 0zm0 0l36.29921 0l12.078751 -12.078735m-12.078751 12.078735l0 36.236206" fill-rule="evenodd"/><path fill="#5abeff" d="m150.91653 236.4504l36.29921 0l0 36.23622l-36.29921 0z" fill-rule="evenodd"/><path fill="#4797cb" d="m187.21574 236.4504l12.078751 -12.078735l0 36.23622l-12.078751 12.078735z" fill-rule="evenodd"/><path fill="#7bcbff" d="m150.91653 236.4504l12.078735 -12.078735l36.299225 0l-12.078751 12.078735z" fill-rule="evenodd"/><path fill="#000000" fill-opacity="0.0" d="m150.91653 236.4504l12.078735 -12.078735l36.299225 0l0 36.23622l-12.078751 12.078735l-36.29921 0zm0 0l36.29921 0l12.078751 -12.078735m-12.078751 12.078735l0 36.23622" fill-rule="evenodd"/><path stroke="#434343" stroke-width="1.0" stroke-linejoin="round" stroke-linecap="butt" d="m150.91653 236.4504l12.078735 -12.078735l36.299225 0l0 36.23622l-12.078751 12.078735l-36.29921 0zm0 0l36.29921 0l12.078751 -12.078735m-12.078751 12.078735l0 36.23622" fill-rule="evenodd"/><path fill="#5abeff" d="m150.91653 198.0504l36.29921 0l0 36.23622l-36.29921 0z" fill-rule="evenodd"/><path fill="#4797cb" d="m187.21574 198.0504l12.078751 -12.078751l0 36.23622l-12.078751 12.078751z" fill-rule="evenodd"/><path fill="#7bcbff" d="m150.91653 198.0504l12.078735 -12.078751l36.299225 0l-12.078751 12.078751z" fill-rule="evenodd"/><path fill="#000000" fill-opacity="0.0" d="m150.91653 198.0504l12.078735 -12.078751l36.299225 0l0 36.23622l-12.078751 12.078751l-36.29921 0zm0 0l36.29921 0l12.078751 -12.078751m-12.078751 12.078751l0 36.23622" fill-rule="evenodd"/><path stroke="#434343" stroke-width="1.0" stroke-linejoin="round" stroke-linecap="butt" d="m150.91653 198.0504l12.078735 -12.078751l36.299225 0l0 36.23622l-12.078751 12.078751l-36.29921 0zm0 0l36.29921 0l12.078751 -12.078751m-12.078751 12.078751l0 36.23622" fill-rule="evenodd"/><path fill="#b6d7a8" d="m150.91653 159.65039l36.29921 0l0 36.23622l-36.29921 0z" fill-rule="evenodd"/><path fill="#91ab86" d="m187.21574 159.65039l12.078751 -12.078735l0 36.23622l-12.078751 12.078735z" fill-rule="evenodd"/><path fill="#c4dfb9" d="m150.91653 159.65039l12.078735 -12.078735l36.299225 0l-12.078751 12.078735z" fill-rule="evenodd"/><path fill="#000000" fill-opacity="0.0" d="m150.91653 159.65039l12.078735 -12.078735l36.299225 0l0 36.23622l-12.078751 12.078735l-36.29921 0zm0 0l36.29921 0l12.078751 -12.078735m-12.078751 12.078735l0 36.23622" fill-rule="evenodd"/><path stroke="#434343" stroke-width="1.0" stroke-linejoin="round" stroke-linecap="butt" d="m150.91653 159.65039l12.078735 -12.078735l36.299225 0l0 36.23622l-12.078751 12.078735l-36.29921 0zm0 0l36.29921 0l12.078751 -12.078735m-12.078751 12.078735l0 36.23622" fill-rule="evenodd"/><path fill="#5abeff" d="m189.31653 274.8504l36.299225 0l0 36.236206l-36.299225 0z" fill-rule="evenodd"/><path fill="#4797cb" d="m225.61575 274.8504l12.078735 -12.078735l0 36.236206l-12.078735 12.078735z" fill-rule="evenodd"/><path fill="#7bcbff" d="m189.31653 274.8504l12.078751 -12.078735l36.29921 0l-12.078735 12.078735z" fill-rule="evenodd"/><path fill="#000000" fill-opacity="0.0" d="m189.31653 274.8504l12.078751 -12.078735l36.29921 0l0 36.236206l-12.078735 12.078735l-36.299225 0zm0 0l36.299225 0l12.078735 -12.078735m-12.078735 12.078735l0 36.236206" fill-rule="evenodd"/><path stroke="#434343" stroke-width="1.0" stroke-linejoin="round" stroke-linecap="butt" d="m189.31653 274.8504l12.078751 -12.078735l36.29921 0l0 36.236206l-12.078735 12.078735l-36.299225 0zm0 0l36.299225 0l12.078735 -12.078735m-12.078735 12.078735l0 36.236206" fill-rule="evenodd"/><path fill="#5abeff" d="m189.31653 236.4504l36.299225 0l0 36.23622l-36.299225 0z" fill-rule="evenodd"/><path fill="#4797cb" d="m225.61575 236.4504l12.078735 -12.078735l0 36.23622l-12.078735 12.078735z" fill-rule="evenodd"/><path fill="#7bcbff" d="m189.31653 236.4504l12.078751 -12.078735l36.29921 0l-12.078735 12.078735z" fill-rule="evenodd"/><path fill="#000000" fill-opacity="0.0" d="m189.31653 236.4504l12.078751 -12.078735l36.29921 0l0 36.23622l-12.078735 12.078735l-36.299225 0zm0 0l36.299225 0l12.078735 -12.078735m-12.078735 12.078735l0 36.23622" fill-rule="evenodd"/><path stroke="#434343" stroke-width="1.0" stroke-linejoin="round" stroke-linecap="butt" d="m189.31653 236.4504l12.078751 -12.078735l36.29921 0l0 36.23622l-12.078735 12.078735l-36.299225 0zm0 0l36.299225 0l12.078735 -12.078735m-12.078735 12.078735l0 36.23622" fill-rule="evenodd"/><path fill="#5abeff" d="m189.31653 198.0504l36.299225 0l0 36.23622l-36.299225 0z" fill-rule="evenodd"/><path fill="#4797cb" d="m225.61575 198.0504l12.078735 -12.078751l0 36.23622l-12.078735 12.078751z" fill-rule="evenodd"/><path fill="#7bcbff" d="m189.31653 198.0504l12.078751 -12.078751l36.29921 0l-12.078735 12.078751z" fill-rule="evenodd"/><path fill="#000000" fill-opacity="0.0" d="m189.31653 198.0504l12.078751 -12.078751l36.29921 0l0 36.23622l-12.078735 12.078751l-36.299225 0zm0 0l36.299225 0l12.078735 -12.078751m-12.078735 12.078751l0 36.23622" fill-rule="evenodd"/><path stroke="#434343" stroke-width="1.0" stroke-linejoin="round" stroke-linecap="butt" d="m189.31653 198.0504l12.078751 -12.078751l36.29921 0l0 36.23622l-12.078735 12.078751l-36.299225 0zm0 0l36.299225 0l12.078735 -12.078751m-12.078735 12.078751l0 36.23622" fill-rule="evenodd"/><path fill="#b6d7a8" d="m189.31653 159.65039l36.299225 0l0 36.23622l-36.299225 0z" fill-rule="evenodd"/><path fill="#91ab86" d="m225.61575 159.65039l12.078735 -12.078735l0 36.23622l-12.078735 12.078735z" fill-rule="evenodd"/><path fill="#c4dfb9" d="m189.31653 159.65039l12.078751 -12.078735l36.29921 0l-12.078735 12.078735z" fill-rule="evenodd"/><path fill="#000000" fill-opacity="0.0" d="m189.31653 159.65039l12.078751 -12.078735l36.29921 0l0 36.23622l-12.078735 12.078735l-36.299225 0zm0 0l36.299225 0l12.078735 -12.078735m-12.078735 12.078735l0 36.23622" fill-rule="evenodd"/><path stroke="#434343" stroke-width="1.0" stroke-linejoin="round" stroke-linecap="butt" d="m189.31653 159.65039l12.078751 -12.078735l36.29921 0l0 36.23622l-12.078735 12.078735l-36.299225 0zm0 0l36.299225 0l12.078735 -12.078735m-12.078735 12.078735l0 36.23622" fill-rule="evenodd"/><path fill="#5abeff" d="m227.71654 274.8504l36.29921 0l0 36.236206l-36.29921 0z" fill-rule="evenodd"/><path fill="#4797cb" d="m264.01575 274.8504l12.078735 -12.078735l0 36.236206l-12.078735 12.078735z" fill-rule="evenodd"/><path fill="#7bcbff" d="m227.71654 274.8504l12.078735 -12.078735l36.29921 0l-12.078735 12.078735z" fill-rule="evenodd"/><path fill="#000000" fill-opacity="0.0" d="m227.71654 274.8504l12.078735 -12.078735l36.29921 0l0 36.236206l-12.078735 12.078735l-36.29921 0zm0 0l36.29921 0l12.078735 -12.078735m-12.078735 12.078735l0 36.236206" fill-rule="evenodd"/><path stroke="#434343" stroke-width="1.0" stroke-linejoin="round" stroke-linecap="butt" d="m227.71654 274.8504l12.078735 -12.078735l36.29921 0l0 36.236206l-12.078735 12.078735l-36.29921 0zm0 0l36.29921 0l12.078735 -12.078735m-12.078735 12.078735l0 36.236206" fill-rule="evenodd"/><path fill="#5abeff" d="m227.71654 236.4504l36.29921 0l0 36.23622l-36.29921 0z" fill-rule="evenodd"/><path fill="#4797cb" d="m264.01575 236.4504l12.078735 -12.078735l0 36.23622l-12.078735 12.078735z" fill-rule="evenodd"/><path fill="#7bcbff" d="m227.71654 236.4504l12.078735 -12.078735l36.29921 0l-12.078735 12.078735z" fill-rule="evenodd"/><path fill="#000000" fill-opacity="0.0" d="m227.71654 236.4504l12.078735 -12.078735l36.29921 0l0 36.23622l-12.078735 12.078735l-36.29921 0zm0 0l36.29921 0l12.078735 -12.078735m-12.078735 12.078735l0 36.23622" fill-rule="evenodd"/><path stroke="#434343" stroke-width="1.0" stroke-linejoin="round" stroke-linecap="butt" d="m227.71654 236.4504l12.078735 -12.078735l36.29921 0l0 36.23622l-12.078735 12.078735l-36.29921 0zm0 0l36.29921 0l12.078735 -12.078735m-12.078735 12.078735l0 36.23622" fill-rule="evenodd"/><path fill="#5abeff" d="m227.71654 198.0504l36.29921 0l0 36.23622l-36.29921 0z" fill-rule="evenodd"/><path fill="#4797cb" d="m264.01575 198.0504l12.078735 -12.078751l0 36.23622l-12.078735 12.078751z" fill-rule="evenodd"/><path fill="#7bcbff" d="m227.71654 198.0504l12.078735 -12.078751l36.29921 0l-12.078735 12.078751z" fill-rule="evenodd"/><path fill="#000000" fill-opacity="0.0" d="m227.71654 198.0504l12.078735 -12.078751l36.29921 0l0 36.23622l-12.078735 12.078751l-36.29921 0zm0 0l36.29921 0l12.078735 -12.078751m-12.078735 12.078751l0 36.23622" fill-rule="evenodd"/><path stroke="#434343" stroke-width="1.0" stroke-linejoin="round" stroke-linecap="butt" d="m227.71654 198.0504l12.078735 -12.078751l36.29921 0l0 36.23622l-12.078735 12.078751l-36.29921 0zm0 0l36.29921 0l12.078735 -12.078751m-12.078735 12.078751l0 36.23622" fill-rule="evenodd"/><path fill="#b6d7a8" d="m227.71654 159.65039l36.29921 0l0 36.23622l-36.29921 0z" fill-rule="evenodd"/><path fill="#91ab86" d="m264.01575 159.65039l12.078735 -12.078735l0 36.23622l-12.078735 12.078735z" fill-rule="evenodd"/><path fill="#c4dfb9" d="m227.71654 159.65039l12.078735 -12.078735l36.29921 0l-12.078735 12.078735z" fill-rule="evenodd"/><path fill="#000000" fill-opacity="0.0" d="m227.71654 159.65039l12.078735 -12.078735l36.29921 0l0 36.23622l-12.078735 12.078735l-36.29921 0zm0 0l36.29921 0l12.078735 -12.078735m-12.078735 12.078735l0 36.23622" fill-rule="evenodd"/><path stroke="#434343" stroke-width="1.0" stroke-linejoin="round" stroke-linecap="butt" d="m227.71654 159.65039l12.078735 -12.078735l36.29921 0l0 36.23622l-12.078735 12.078735l-36.29921 0zm0 0l36.29921 0l12.078735 -12.078735m-12.078735 12.078735l0 36.23622" fill-rule="evenodd"/><path fill="#5abeff" d="m155.71654 78.05039l36.29921 0l0 36.23622l-36.29921 0z" fill-rule="evenodd"/><path fill="#4797cb" d="m192.01575 78.05039l12.078735 -12.078735l0 36.236214l-12.078735 12.078743z" fill-rule="evenodd"/><path fill="#7bcbff" d="m155.71654 78.05039l12.078735 -12.078735l36.29921 0l-12.078735 12.078735z" fill-rule="evenodd"/><path fill="#000000" fill-opacity="0.0" d="m155.71654 78.05039l12.078735 -12.078735l36.29921 0l0 36.236214l-12.078735 12.078743l-36.29921 0zm0 0l36.29921 0l12.078735 -12.078735m-12.078735 12.078735l0 36.23622" fill-rule="evenodd"/><path stroke="#434343" stroke-width="1.0" stroke-linejoin="round" stroke-linecap="butt" d="m155.71654 78.05039l12.078735 -12.078735l36.29921 0l0 36.236214l-12.078735 12.078743l-36.29921 0zm0 0l36.29921 0l12.078735 -12.078735m-12.078735 12.078735l0 36.23622" fill-rule="evenodd"/><path fill="#5abeff" d="m194.11653 78.05039l36.29921 0l0 36.23622l-36.29921 0z" fill-rule="evenodd"/><path fill="#4797cb" d="m230.41574 78.05039l12.078751 -12.078735l0 36.236214l-12.078751 12.078743z" fill-rule="evenodd"/><path fill="#7bcbff" d="m194.11653 78.05039l12.078751 -12.078735l36.29921 0l-12.078751 12.078735z" fill-rule="evenodd"/><path fill="#000000" fill-opacity="0.0" d="m194.11653 78.05039l12.078751 -12.078735l36.29921 0l0 36.236214l-12.078751 12.078743l-36.29921 0zm0 0l36.29921 0l12.078751 -12.078735m-12.078751 12.078735l0 36.23622" fill-rule="evenodd"/><path stroke="#434343" stroke-width="1.0" stroke-linejoin="round" stroke-linecap="butt" d="m194.11653 78.05039l12.078751 -12.078735l36.29921 0l0 36.236214l-12.078751 12.078743l-36.29921 0zm0 0l36.29921 0l12.078751 -12.078735m-12.078751 12.078735l0 36.23622" fill-rule="evenodd"/><path fill="#5abeff" d="m232.51654 78.24987l36.299194 0l0 36.23622l-36.299194 0z" fill-rule="evenodd"/><path fill="#4797cb" d="m268.81573 78.24987l12.078766 -12.078743l0 36.23622l-12.078766 12.078743z" fill-rule="evenodd"/><path fill="#7bcbff" d="m232.51654 78.24987l12.078735 -12.078743l36.299225 0l-12.078766 12.078743z" fill-rule="evenodd"/><path fill="#000000" fill-opacity="0.0" d="m232.51654 78.24987l12.078735 -12.078743l36.299225 0l0 36.23622l-12.078766 12.078743l-36.299194 0zm0 0l36.299194 0l12.078766 -12.078743m-12.078766 12.078743l0 36.23622" fill-rule="evenodd"/><path stroke="#434343" stroke-width="1.0" stroke-linejoin="round" stroke-linecap="butt" d="m232.51654 78.24987l12.078735 -12.078743l36.299225 0l0 36.23622l-12.078766 12.078743l-36.299194 0zm0 0l36.299194 0l12.078766 -12.078743m-12.078766 12.078743l0 36.23622" fill-rule="evenodd"/><path fill="#5abeff" d="m270.91653 78.05039l36.299225 0l0 36.23622l-36.299225 0z" fill-rule="evenodd"/><path fill="#4797cb" d="m307.21576 78.05039l12.078735 -12.078735l0 36.236214l-12.078735 12.078743z" fill-rule="evenodd"/><path fill="#7bcbff" d="m270.91653 78.05039l12.078735 -12.078735l36.299225 0l-12.078735 12.078735z" fill-rule="evenodd"/><path fill="#000000" fill-opacity="0.0" d="m270.91653 78.05039l12.078735 -12.078735l36.299225 0l0 36.236214l-12.078735 12.078743l-36.299225 0zm0 0l36.299225 0l12.078735 -12.078735m-12.078735 12.078735l0 36.23622" fill-rule="evenodd"/><path stroke="#434343" stroke-width="1.0" stroke-linejoin="round" stroke-linecap="butt" d="m270.91653 78.05039l12.078735 -12.078735l36.299225 0l0 36.236214l-12.078735 12.078743l-36.299225 0zm0 0l36.299225 0l12.078735 -12.078735m-12.078735 12.078735l0 36.23622" fill-rule="evenodd"/><path fill="#5abeff" d="m141.31653 92.45039l36.299225 0l0 36.23622l-36.299225 0z" fill-rule="evenodd"/><path fill="#4797cb" d="m177.61575 92.45039l12.078735 -12.078743l0 36.23622l-12.078735 12.078743z" fill-rule="evenodd"/><path fill="#7bcbff" d="m141.31653 92.45039l12.078751 -12.078743l36.29921 0l-12.078735 12.078743z" fill-rule="evenodd"/><path fill="#000000" fill-opacity="0.0" d="m141.31653 92.45039l12.078751 -12.078743l36.29921 0l0 36.23622l-12.078735 12.078743l-36.299225 0zm0 0l36.299225 0l12.078735 -12.078743m-12.078735 12.078743l0 36.23622" fill-rule="evenodd"/><path stroke="#434343" stroke-width="1.0" stroke-linejoin="round" stroke-linecap="butt" d="m141.31653 92.45039l12.078751 -12.078743l36.29921 0l0 36.23622l-12.078735 12.078743l-36.299225 0zm0 0l36.299225 0l12.078735 -12.078743m-12.078735 12.078743l0 36.23622" fill-rule="evenodd"/><path fill="#5abeff" d="m179.71654 92.45039l36.29921 0l0 36.23622l-36.29921 0z" fill-rule="evenodd"/><path fill="#4797cb" d="m216.01575 92.45039l12.078735 -12.078743l0 36.23622l-12.078735 12.078743z" fill-rule="evenodd"/><path fill="#7bcbff" d="m179.71654 92.45039l12.078735 -12.078743l36.29921 0l-12.078735 12.078743z" fill-rule="evenodd"/><path fill="#000000" fill-opacity="0.0" d="m179.71654 92.45039l12.078735 -12.078743l36.29921 0l0 36.23622l-12.078735 12.078743l-36.29921 0zm0 0l36.29921 0l12.078735 -12.078743m-12.078735 12.078743l0 36.23622" fill-rule="evenodd"/><path stroke="#434343" stroke-width="1.0" stroke-linejoin="round" stroke-linecap="butt" d="m179.71654 92.45039l12.078735 -12.078743l36.29921 0l0 36.23622l-12.078735 12.078743l-36.29921 0zm0 0l36.29921 0l12.078735 -12.078743m-12.078735 12.078743l0 36.23622" fill-rule="evenodd"/><path fill="#5abeff" d="m218.11679 92.04882l36.299225 0l0 36.236214l-36.299225 0z" fill-rule="evenodd"/><path fill="#4797cb" d="m254.41602 92.04882l12.078735 -12.078743l0 36.23622l-12.078735 12.078735z" fill-rule="evenodd"/><path fill="#7bcbff" d="m218.11679 92.04882l12.078751 -12.078743l36.29921 0l-12.078735 12.078743z" fill-rule="evenodd"/><path fill="#000000" fill-opacity="0.0" d="m218.11679 92.04882l12.078751 -12.078743l36.29921 0l0 36.23622l-12.078735 12.078735l-36.299225 0zm0 0l36.299225 0l12.078735 -12.078743m-12.078735 12.078743l0 36.236214" fill-rule="evenodd"/><path stroke="#434343" stroke-width="1.0" stroke-linejoin="round" stroke-linecap="butt" d="m218.11679 92.04882l12.078751 -12.078743l36.29921 0l0 36.23622l-12.078735 12.078735l-36.299225 0zm0 0l36.299225 0l12.078735 -12.078743m-12.078735 12.078743l0 36.236214" fill-rule="evenodd"/><path fill="#5abeff" d="m256.51654 92.45039l36.299194 0l0 36.23622l-36.299194 0z" fill-rule="evenodd"/><path fill="#4797cb" d="m292.81573 92.45039l12.078766 -12.078743l0 36.23622l-12.078766 12.078743z" fill-rule="evenodd"/><path fill="#7bcbff" d="m256.51654 92.45039l12.078735 -12.078743l36.299225 0l-12.078766 12.078743z" fill-rule="evenodd"/><path fill="#000000" fill-opacity="0.0" d="m256.51654 92.45039l12.078735 -12.078743l36.299225 0l0 36.23622l-12.078766 12.078743l-36.299194 0zm0 0l36.299194 0l12.078766 -12.078743m-12.078766 12.078743l0 36.23622" fill-rule="evenodd"/><path stroke="#434343" stroke-width="1.0" stroke-linejoin="round" stroke-linecap="butt" d="m256.51654 92.45039l12.078735 -12.078743l36.299225 0l0 36.23622l-12.078766 12.078743l-36.299194 0zm0 0l36.299194 0l12.078766 -12.078743m-12.078766 12.078743l0 36.23622" fill-rule="evenodd"/><path fill="#5abeff" d="m126.91549 106.65092l36.299202 0l0 36.23623l-36.299202 0z" fill-rule="evenodd"/><path fill="#4797cb" d="m163.21469 106.65092l12.078751 -12.078735l0 36.236214l-12.078751 12.078751z" fill-rule="evenodd"/><path fill="#7bcbff" d="m126.91549 106.65092l12.078743 -12.078735l36.29921 0l-12.078751 12.078735z" fill-rule="evenodd"/><path fill="#000000" fill-opacity="0.0" d="m126.91549 106.65092l12.078743 -12.078735l36.29921 0l0 36.236214l-12.078751 12.078751l-36.299202 0zm0 0l36.299202 0l12.078751 -12.078735m-12.078751 12.078735l0 36.23623" fill-rule="evenodd"/><path stroke="#434343" stroke-width="1.0" stroke-linejoin="round" stroke-linecap="butt" d="m126.91549 106.65092l12.078743 -12.078735l36.29921 0l0 36.236214l-12.078751 12.078751l-36.299202 0zm0 0l36.299202 0l12.078751 -12.078735m-12.078751 12.078735l0 36.23623" fill-rule="evenodd"/><path fill="#5abeff" d="m165.31653 106.850395l36.299225 0l0 36.236214l-36.299225 0z" fill-rule="evenodd"/><path fill="#4797cb" d="m201.61575 106.850395l12.078735 -12.078743l0 36.23622l-12.078735 12.078735z" fill-rule="evenodd"/><path fill="#7bcbff" d="m165.31653 106.850395l12.078751 -12.078743l36.29921 0l-12.078735 12.078743z" fill-rule="evenodd"/><path fill="#000000" fill-opacity="0.0" d="m165.31653 106.850395l12.078751 -12.078743l36.29921 0l0 36.23622l-12.078735 12.078735l-36.299225 0zm0 0l36.299225 0l12.078735 -12.078743m-12.078735 12.078743l0 36.236214" fill-rule="evenodd"/><path stroke="#434343" stroke-width="1.0" stroke-linejoin="round" stroke-linecap="butt" d="m165.31653 106.850395l12.078751 -12.078743l36.29921 0l0 36.23622l-12.078735 12.078735l-36.299225 0zm0 0l36.299225 0l12.078735 -12.078743m-12.078735 12.078743l0 36.236214" fill-rule="evenodd"/><path fill="#5abeff" d="m203.71654 106.65354l36.29921 0l0 36.23623l-36.29921 0z" fill-rule="evenodd"/><path fill="#4797cb" d="m240.01575 106.65354l12.078735 -12.078735l0 36.236214l-12.078735 12.078751z" fill-rule="evenodd"/><path fill="#7bcbff" d="m203.71654 106.65354l12.078735 -12.078735l36.29921 0l-12.078735 12.078735z" fill-rule="evenodd"/><path fill="#000000" fill-opacity="0.0" d="m203.71654 106.65354l12.078735 -12.078735l36.29921 0l0 36.236214l-12.078735 12.078751l-36.29921 0zm0 0l36.29921 0l12.078735 -12.078735m-12.078735 12.078735l0 36.23623" fill-rule="evenodd"/><path stroke="#434343" stroke-width="1.0" stroke-linejoin="round" stroke-linecap="butt" d="m203.71654 106.65354l12.078735 -12.078735l36.29921 0l0 36.236214l-12.078735 12.078751l-36.29921 0zm0 0l36.29921 0l12.078735 -12.078735m-12.078735 12.078735l0 36.23623" fill-rule="evenodd"/><path fill="#ffe599" d="m112.51653 121.2504l36.299217 0l0 36.23622l-36.299217 0z" fill-rule="evenodd"/><path fill="#cbb77a" d="m148.81575 121.2504l12.078735 -12.078743l0 36.236214l-12.078735 12.078751z" fill-rule="evenodd"/><path fill="#ffeaad" d="m112.51653 121.2504l12.078743 -12.078743l36.29921 0l-12.078735 12.078743z" fill-rule="evenodd"/><path fill="#000000" fill-opacity="0.0" d="m112.51653 121.2504l12.078743 -12.078743l36.29921 0l0 36.236214l-12.078735 12.078751l-36.299217 0zm0 0l36.299217 0l12.078735 -12.078743m-12.078735 12.078743l0 36.23622" fill-rule="evenodd"/><path stroke="#434343" stroke-width="1.0" stroke-linejoin="round" stroke-linecap="butt" d="m112.51653 121.2504l12.078743 -12.078743l36.29921 0l0 36.236214l-12.078735 12.078751l-36.299217 0zm0 0l36.299217 0l12.078735 -12.078743m-12.078735 12.078743l0 36.23622" fill-rule="evenodd"/><path fill="#5abeff" d="m150.91653 121.2504l36.29921 0l0 36.23622l-36.29921 0z" fill-rule="evenodd"/><path fill="#4797cb" d="m187.21574 121.2504l12.078751 -12.078743l0 36.236214l-12.078751 12.078751z" fill-rule="evenodd"/><path fill="#7bcbff" d="m150.91653 121.2504l12.078735 -12.078743l36.299225 0l-12.078751 12.078743z" fill-rule="evenodd"/><path fill="#000000" fill-opacity="0.0" d="m150.91653 121.2504l12.078735 -12.078743l36.299225 0l0 36.236214l-12.078751 12.078751l-36.29921 0zm0 0l36.29921 0l12.078751 -12.078743m-12.078751 12.078743l0 36.23622" fill-rule="evenodd"/><path stroke="#434343" stroke-width="1.0" stroke-linejoin="round" stroke-linecap="butt" d="m150.91653 121.2504l12.078735 -12.078743l36.299225 0l0 36.236214l-12.078751 12.078751l-36.29921 0zm0 0l36.29921 0l12.078751 -12.078743m-12.078751 12.078743l0 36.23622" fill-rule="evenodd"/><path fill="#5abeff" d="m189.31653 121.2504l36.299225 0l0 36.23622l-36.299225 0z" fill-rule="evenodd"/><path fill="#4797cb" d="m225.61575 121.2504l12.078735 -12.078743l0 36.236214l-12.078735 12.078751z" fill-rule="evenodd"/><path fill="#7bcbff" d="m189.31653 121.2504l12.078751 -12.078743l36.29921 0l-12.078735 12.078743z" fill-rule="evenodd"/><path fill="#000000" fill-opacity="0.0" d="m189.31653 121.2504l12.078751 -12.078743l36.29921 0l0 36.236214l-12.078735 12.078751l-36.299225 0zm0 0l36.299225 0l12.078735 -12.078743m-12.078735 12.078743l0 36.23622" fill-rule="evenodd"/><path stroke="#434343" stroke-width="1.0" stroke-linejoin="round" stroke-linecap="butt" d="m189.31653 121.2504l12.078751 -12.078743l36.29921 0l0 36.236214l-12.078735 12.078751l-36.299225 0zm0 0l36.299225 0l12.078735 -12.078743m-12.078735 12.078743l0 36.23622" fill-rule="evenodd"/><path fill="#5abeff" d="m242.11653 106.65039l36.29921 0l0 36.23622l-36.29921 0z" fill-rule="evenodd"/><path fill="#4797cb" d="m278.41574 106.65039l12.078735 -12.078735l0 36.23622l-12.078735 12.078735z" fill-rule="evenodd"/><path fill="#7bcbff" d="m242.11653 106.65039l12.078751 -12.078735l36.299194 0l-12.078735 12.078735z" fill-rule="evenodd"/><path fill="#000000" fill-opacity="0.0" d="m242.11653 106.65039l12.078751 -12.078735l36.299194 0l0 36.23622l-12.078735 12.078735l-36.29921 0zm0 0l36.29921 0l12.078735 -12.078735m-12.078735 12.078735l0 36.23622" fill-rule="evenodd"/><path stroke="#434343" stroke-width="1.0" stroke-linejoin="round" stroke-linecap="butt" d="m242.11653 106.65039l12.078751 -12.078735l36.299194 0l0 36.23622l-12.078735 12.078735l-36.29921 0zm0 0l36.29921 0l12.078735 -12.078735m-12.078735 12.078735l0 36.23622" fill-rule="evenodd"/><path fill="#999999" d="m227.71654 121.2504l36.29921 0l0 36.23622l-36.29921 0z" fill-rule="evenodd"/><path fill="#7a7a7a" d="m264.01575 121.2504l12.078735 -12.078743l0 36.236214l-12.078735 12.078751z" fill-rule="evenodd"/><path fill="#adadad" d="m227.71654 121.2504l12.078735 -12.078743l36.29921 0l-12.078735 12.078743z" fill-rule="evenodd"/><path fill="#000000" fill-opacity="0.0" d="m227.71654 121.2504l12.078735 -12.078743l36.29921 0l0 36.236214l-12.078735 12.078751l-36.29921 0zm0 0l36.29921 0l12.078735 -12.078743m-12.078735 12.078743l0 36.23622" fill-rule="evenodd"/><path stroke="#434343" stroke-width="1.0" stroke-linejoin="round" stroke-linecap="butt" d="m227.71654 121.2504l12.078735 -12.078743l36.29921 0l0 36.236214l-12.078735 12.078751l-36.29921 0zm0 0l36.29921 0l12.078735 -12.078743m-12.078735 12.078743l0 36.23622" fill-rule="evenodd"/><path fill="#000000" fill-opacity="0.0" d="m279.96588 334.89764l94.14172 -93.133865" fill-rule="evenodd"/><path stroke="#3d85c6" stroke-width="2.0" stroke-linejoin="round" stroke-linecap="butt" d="m279.96588 334.89764l94.14172 -93.133865" fill-rule="evenodd"/><path fill="#000000" fill-opacity="0.0" d="m36.09186 334.89764l244.37796 -0.3779602" fill-rule="evenodd"/><path stroke="#6aa84f" stroke-width="2.0" stroke-linejoin="round" stroke-linecap="butt" d="m36.09186 334.89764l244.37796 -0.3779602" fill-rule="evenodd"/><path fill="#000000" fill-opacity="0.0" d="m151.00262 334.64566l29.007874 0l0 41.007874l-29.007874 0z" fill-rule="evenodd"/><path fill="#6aa84f" d="m162.4245 347.8313q-0.015625 0.4375 -0.015625 0.96875q0 0.515625 0.0625 1.0625q-0.265625 0.296875 -0.71875 0.296875q-0.5625 0 -0.5625 -0.890625q0 -0.03125 0 -0.265625q0 -0.25 0.015625 -0.4375q0.015625 -0.203125 0.0625 -0.46875q0.140625 -0.453125 0.578125 -0.453125q0.453125 0 0.578125 0.1875zm-1.1875 9.140625q0 -3.65625 0.375 -4.21875q0.125 -0.203125 0.3125 -0.203125q0.1875 0 0.609375 0.203125q-0.09375 1.59375 -0.09375 3.453125q0 0 0.046875 4.125q0 0.578125 -0.25 0.8125q-0.25 0.234375 -0.46875 0.234375q-0.21875 0 -0.4375 -0.109375q-0.09375 -2.421875 -0.09375 -4.296875z" fill-rule="nonzero"/><path fill="#000000" fill-opacity="0.0" d="m312.25198 281.9685l29.007874 0l0 41.007874l-29.007874 0z" fill-rule="evenodd"/><path fill="#3c78d8" d="m323.54886 296.93536q-0.046875 0.515625 -0.765625 0.515625q-0.59375 -0.03125 -0.59375 -1.625q0 -0.1875 0 -0.375q0.015625 -0.484375 0.625 -0.484375q0.359375 0 0.53125 0.078125q0.203125 0.78125 0.203125 1.890625zm-2.671875 15.625q1.71875 0 1.71875 -5.890625q0 -1.421875 -0.109375 -3.546875q-0.09375 -2.125 -0.09375 -2.46875q0 -0.78125 0.75 -0.78125q0.421875 0 0.421875 0.484375l-0.015625 0.53125q0 0.5 0.09375 1.625q0.234375 3.421875 0.234375 4.765625q0 1.34375 -0.125 2.328125q-0.109375 0.984375 -0.40625 1.921875q-0.296875 0.9375 -0.9375 1.46875q-0.640625 0.53125 -1.53125 0.53125q-0.515625 0 -0.921875 -0.140625q-0.421875 -0.140625 -0.421875 -0.359375q0 -0.265625 0.171875 -0.390625q0.171875 -0.109375 0.34375 -0.125q0.171875 0 0.484375 0.015625q0.296875 0.03125 0.34375 0.03125z" fill-rule="nonzero"/><path fill="#000000" fill-opacity="0.0" d="m7.0839896 199.22572l29.007872 0l0 41.007874l-29.007872 0z" fill-rule="evenodd"/><path fill="#f1c232" d="m17.20899 218.33322q-0.84375 0 -1.140625 -0.421875q0 -0.296875 0.25 -0.453125q0.25 -0.171875 0.546875 -0.21875q0.296875 -0.046875 0.96875 -0.09375q0.0625 -0.5 0.0625 -1.28125q0.015625 -0.796875 0.03125 -1.359375q0.0625 -1.46875 0.453125 -1.8125q0.171875 -0.140625 0.359375 -0.140625q0.203125 0 0.34375 0.03125q0.0625 1.34375 0.0625 1.625l-0.109375 2.796875q0.03125 0.015625 0.203125 0.015625l1.34375 -0.046875q1.453125 0 1.453125 0.4375q0 0.640625 -0.53125 0.75q-0.234375 0.0625 -0.5625 0.0625q-0.328125 0 -0.84375 -0.078125q-0.515625 -0.09375 -0.734375 -0.09375q-0.21875 0 -0.296875 0.015625q-0.0625 0.546875 -0.0625 1.078125q0 0.53125 0.03125 1.328125q0.03125 0.78125 0.15625 1.890625q0.125 1.09375 0.53125 1.890625q0.40625 0.796875 1.046875 0.796875q0.3125 0 0.734375 -0.25q0.4375 -0.265625 0.671875 -0.265625q0.234375 0 0.40625 0.109375q0.171875 0.09375 0.171875 0.234375q0 0.390625 -0.796875 0.75q-0.78125 0.359375 -1.34375 0.359375q-2.046875 0 -2.546875 -3.875q-0.15625 -1.125 -0.234375 -3.84375q-0.296875 0.0625 -0.625 0.0625z" fill-rule="nonzero"/><path fill="#000000" fill-opacity="0.0" d="m8.265092 16.650919l118.64567 0l0 25.637796l-118.64567 0z" fill-rule="evenodd"/><path fill="#000000" d="m10.905717 33.414665l-0.140625 -10.921873q0 -1.1875 4.828125 -1.1875q2.265624 0 3.796874 0.859375q1.546875 0.859375 1.546875 2.46875q0 1.0625 -0.828125 2.015625q-0.8125 0.9375 -1.828125 1.203125q1.28125 0.390625 2.21875 1.140625q0.953125 0.75 0.953125 1.953125q0 1.1874981 -1.03125 2.093748q-1.984375 1.734375 -6.078124 1.734375q-3.4375 0 -3.4375 -1.359375zm1.21875 -5.499998q1.15625 -0.453125 2.546875 -0.453125q0.65625 0 1.3125 0q0.98437405 0 2.390624 -0.875q1.40625 -0.890625 1.40625 -1.703125q0 -1.1875 -1.5 -1.890625q-1.484375 -0.703125 -3.296874 -0.703125q-1.796875 0 -2.921875 0.421875q0 0.328125 0 0.96875q0 0.640625 0.03125 2.125q0.03125 1.484375 0.03125 2.109375zm7.968749 3.015625q0 -1.625 -3.515625 -2.359375q-1.796874 0.515625 -3.390624 0.515625q-0.53125 0 -1.03125 -0.0625q0.0625 2.21875 0.0625 4.515623q1.078125 0.25 2.1875 0.25q1.109375 0 1.968749 -0.140625q0.875 -0.140625 1.734375 -0.4375q0.875 -0.296875 1.421875 -0.890625q0.5625 -0.6093731 0.5625 -1.3906231zm4.5785065 -10.09375q-0.015625 0.4375 -0.015625 0.96875q0 0.515625 0.0625 1.0625q-0.265625 0.296875 -0.71875 0.296875q-0.5625 0 -0.5625 -0.890625q0 -0.03125 0 -0.265625q0 -0.25 0.015625 -0.4375q0.015625 -0.203125 0.0625 -0.46875q0.140625 -0.453125 0.578125 -0.453125q0.453125 0 0.578125 0.1875zm-1.1875 9.140625q0 -3.65625 0.375 -4.21875q0.125 -0.203125 0.3125 -0.203125q0.1875 0 0.609375 0.203125q-0.09375 1.59375 -0.09375 3.453125q0 0 0.046875 4.124998q0 0.578125 -0.25 0.8125q-0.25 0.234375 -0.46875 0.234375q-0.21875 0 -0.4375 -0.109375q-0.09375 -2.421873 -0.09375 -4.296873zm11.262497 4.078123q-0.328125 0.34375 -0.765625 0.34375q-0.796875 0 -1.1875 -0.859375q-0.390625 -0.859375 -0.46875 -2.078123q-0.0625 -1.234375 -0.078125 -2.46875q-0.015625 -1.234375 -0.203125 -2.09375q-0.171875 -0.859375 -0.65625 -0.859375q-0.65625 0 -1.109375 1.1875q-0.453125 1.171875 -0.640625 2.609375q-0.515625 3.999998 -1.0 4.484373q-0.34375 0.171875 -0.59375 0.171875q-0.234375 0 -0.40625 -0.046875q-0.390625 -1.71875 -0.5 -5.921873q-0.03125 -2.09375 -0.078125 -2.703125q0.390625 -0.265625 0.671875 -0.265625q0.28125 0 0.453125 0.0625q0.09375 0.796875 0.09375 3.28125q0.015625 2.484375 0.03125 2.859375q0.09375 -0.390625 0.234375 -1.265625q0.140625 -0.890625 0.25 -1.453125q0.109375 -0.5625 0.359375 -1.328125q0.25 -0.765625 0.546875 -1.21875q0.296875 -0.46875 0.8125 -0.796875q0.53125 -0.328125 1.171875 -0.328125q0.875 0 1.28125 0.796875q0.40625 0.796875 0.4375 1.96875q0.046875 1.171875 0.046875 2.390625q0.015625 1.21875 0.296875 2.218748q0.296875 1.0 1.0 1.3125zm5.4560547 -7.296873q-0.84375 0 -1.140625 -0.421875q0 -0.296875 0.25 -0.453125q0.25 -0.171875 0.546875 -0.21875q0.296875 -0.046875 0.96875 -0.09375q0.0625 -0.5 0.0625 -1.28125q0.015625 -0.796875 0.03125 -1.359375q0.0625 -1.46875 0.453125 -1.8125q0.171875 -0.140625 0.359375 -0.140625q0.203125 0 0.34375 0.03125q0.0625 1.34375 0.0625 1.625l-0.109375 2.796875q0.03125 0.015625 0.203125 0.015625l1.34375 -0.046875q1.453125 0 1.453125 0.4375q0 0.640625 -0.53125 0.75q-0.234375 0.0625 -0.5625 0.0625q-0.328125 0 -0.84375 -0.078125q-0.515625 -0.09375 -0.734375 -0.09375q-0.21875 0 -0.296875 0.015625q-0.0625 0.546875 -0.0625 1.078125q0 0.53125 0.03125 1.328125q0.03125 0.78125 0.15625 1.890625q0.125 1.09375 0.53125 1.8906231q0.40625 0.796875 1.046875 0.796875q0.3125 0 0.734375 -0.25q0.4375 -0.265625 0.671875 -0.265625q0.234375 0 0.40625 0.109375q0.171875 0.09375 0.171875 0.234375q0 0.390625 -0.796875 0.75q-0.78125 0.359375 -1.34375 0.359375q-2.046875 0 -2.546875 -3.874998q-0.15625 -1.125 -0.234375 -3.84375q-0.296875 0.0625 -0.625 0.0625zm7.975815 -5.921875q-0.015625 0.4375 -0.015625 0.96875q0 0.515625 0.0625 1.0625q-0.265625 0.296875 -0.71875 0.296875q-0.5625 0 -0.5625 -0.890625q0 -0.03125 0 -0.265625q0 -0.25 0.015625 -0.4375q0.015625 -0.203125 0.0625 -0.46875q0.140625 -0.453125 0.578125 -0.453125q0.453125 0 0.578125 0.1875zm-1.1875 9.140625q0 -3.65625 0.375 -4.21875q0.125 -0.203125 0.3125 -0.203125q0.1875 0 0.609375 0.203125q-0.09375 1.59375 -0.09375 3.453125q0 0 0.046875 4.124998q0 0.578125 -0.25 0.8125q-0.25 0.234375 -0.46875 0.234375q-0.21875 0 -0.4375 -0.109375q-0.09375 -2.421873 -0.09375 -4.296873zm4.481247 -3.5625q0.203125 0 0.203125 2.46875q0 0.390625 -0.015625 1.25q0 0.859375 0 0.890625q0.171875 -2.109375 0.375 -2.875q0.203125 -0.765625 0.40625 -1.3125q0.203125 -0.546875 0.4375 -0.84375q0.609375 -0.765625 1.390625 -0.765625q0.984375 0 1.46875 0.984375q0.5 0.984375 0.515625 2.625q0.46875 -3.375 2.46875 -3.375q0.859375 0 1.203125 0.890625q0.359375 0.875 0.359375 2.078125l-0.046875 2.84375q0 2.796873 1.203125 2.796873l1.0625 -0.171875q0.09375 0 0.1875 0.015625q-0.1875 0.28125 -0.6875 0.4375q-0.5 0.15625 -0.984375 0.15625q-0.953125 0 -1.4375 -0.84375q-0.46875 -0.84375 -0.515625 -1.7812481q-0.03125 -0.953125 -0.03125 -1.625l0.046875 -1.65625q0 -0.828125 -0.109375 -1.5625q-0.09375 -0.75 -0.53125 -0.75q-0.625 0 -1.21875 2.65625q-0.59375 2.65625 -0.71875 5.046873q-0.3125 0.328125 -0.796875 0.359375q-0.15625 0 -0.28125 -0.0625q-0.171875 -0.96875 -0.1875 -3.234373q0 -2.265625 -0.234375 -3.609375q-0.21875 -1.34375 -1.0 -1.34375q-0.515625 0 -0.859375 1.15625q-0.546875 1.8125 -0.96875 5.640623q-0.109375 0.890625 -0.171875 1.28125q-0.390625 0.328125 -0.796875 0.328125l-0.28125 -0.03125q-0.265625 -3.109373 -0.265625 -7.718748q0.203125 -0.34375 0.8125 -0.34375zm12.524872 4.375q-0.03125 0.359375 -0.03125 0.5q0 1.1093731 0.671875 1.7343731q0.6875 0.609375 1.625 0.609375q0.9375 0 1.515625 -0.25q0.59375 -0.265625 0.84375 -0.5625q0.671875 -0.8437481 1.234375 -0.8437481q0.203125 0 0.484375 0.10937309q-0.1875 0.921875 -1.40625 1.671875q-1.21875 0.75 -3.0625 0.75q-1.3125 0 -2.25 -0.828125q-0.9375 -0.828125 -0.9375 -2.265623q0 -1.4375 0.5625 -2.78125q0.5625 -1.359375 1.640625 -2.3125q1.078125 -0.96875 2.1875 -0.96875q1.109375 0 1.78125 0.46875q0.6875 0.453125 0.6875 1.328125q0 1.625 -1.453125 2.6875q-1.4375 1.046875 -3.0625 1.046875q-0.421875 0 -1.03125 -0.09375zm1.421875 -0.625q0.875 0 1.5625 -0.546875q0.703125 -0.5625 0.984375 -1.171875q0.296875 -0.625 0.296875 -1.125q0 -0.515625 -0.40625 -0.890625q-0.390625 -0.390625 -0.90625 -0.390625q-0.9375 0 -1.734375 1.296875q-0.78125 1.28125 -1.125 2.65625q0.828125 0.171875 1.328125 0.171875zm15.35321 -3.0625q-0.171875 -0.421875 -0.640625 -0.65625q-0.453125 -0.25 -1.15625 -0.25q-0.6875 0 -1.296875 0.40625q-0.59375 0.40625 -0.59375 1.109375q0 0.6875 0.5625 1.09375q0.578125 0.390625 1.375 0.59375q0.8125 0.203125 1.640625 0.4375q0.828125 0.234375 1.390625 0.765625q0.5625 0.53125 0.5625 1.390625q0 1.2499981 -1.03125 1.9062481q-1.03125 0.65625 -2.484375 0.65625q-0.859375 0 -2.25 -0.46875q-1.390625 -0.46875 -1.390625 -1.125q0 -0.484375 0.8125 -0.484375q0.25 0 0.640625 0.296875q1.1875 0.875 2.4375 0.875q0.671875 0 1.15625 -0.21875q0.90625 -0.421875 0.90625 -1.375q0 -0.5781231 -0.578125 -0.9374981q-0.5625 -0.359375 -1.375 -0.5625q-0.8125 -0.203125 -1.640625 -0.4375q-0.8125 -0.25 -1.390625 -0.8125q-0.5625 -0.578125 -0.5625 -1.453125q0 -1.140625 1.015625 -1.84375q1.03125 -0.703125 2.546875 -0.703125q1.03125 0 1.859375 0.53125q0.828125 0.53125 0.828125 1.53125q0 0.671875 -0.765625 0.671875q-0.3125 0 -0.421875 -0.109375q-0.09375 -0.109375 -0.109375 -0.390625q0 -0.296875 -0.046875 -0.4375zm4.3997498 3.6875q-0.03125 0.359375 -0.03125 0.5q0 1.1093731 0.671875 1.7343731q0.6875 0.609375 1.625 0.609375q0.9375 0 1.515625 -0.25q0.59375 -0.265625 0.84375 -0.5625q0.671875 -0.8437481 1.234375 -0.8437481q0.203125 0 0.484375 0.10937309q-0.1875 0.921875 -1.40625 1.671875q-1.21875 0.75 -3.0625 0.75q-1.3125 0 -2.25 -0.828125q-0.9375 -0.828125 -0.9375 -2.265623q0 -1.4375 0.5625 -2.78125q0.5625 -1.359375 1.640625 -2.3125q1.078125 -0.96875 2.1875 -0.96875q1.109375 0 1.78125 0.46875q0.6875 0.453125 0.6875 1.328125q0 1.625 -1.453125 2.6875q-1.4375 1.046875 -3.0625 1.046875q-0.421875 0 -1.03125 -0.09375zm1.421875 -0.625q0.875 0 1.5625 -0.546875q0.703125 -0.5625 0.984375 -1.171875q0.296875 -0.625 0.296875 -1.125q0 -0.515625 -0.40625 -0.890625q-0.390625 -0.390625 -0.90625 -0.390625q-0.9375 0 -1.734375 1.296875q-0.78125 1.28125 -1.125 2.65625q0.828125 0.171875 1.328125 0.171875zm8.277527 2.578123l0.0625 1.0625q0 0.40625 -0.234375 0.578125q-0.234375 0.15625 -0.46875 0.15625q-0.234375 0 -0.46875 -0.078125q-0.40625 -2.171875 -0.625 -5.390623q-0.21875 -3.234375 -0.25 -3.65625q0.28125 -0.265625 0.578125 -0.265625q0.3125 0 0.5625 0.078125q0.0625 0.53125 0.09375 2.390625q0.046875 1.84375 0.109375 2.3125q0.25 -1.578125 0.921875 -2.9375q0.375 -0.765625 0.984375 -1.21875q0.609375 -0.453125 1.296875 -0.453125q0.703125 0 1.296875 0.625q0.59375 0.625 0.59375 1.125q0 0.1875 -0.234375 0.296875q-0.21875 0.09375 -0.5 0.09375q-0.265625 0 -0.421875 -0.203125q-0.140625 -0.203125 -0.203125 -0.453125q-0.046875 -0.25 -0.234375 -0.453125q-0.1875 -0.21875 -0.5 -0.21875q-0.84375 0 -1.4375 1.515625q-0.921875 2.25 -0.921875 5.093748zm6.925186 -11.906248q-0.015625 0.4375 -0.015625 0.96875q0 0.515625 0.0625 1.0625q-0.265625 0.296875 -0.71875 0.296875q-0.5625 0 -0.5625 -0.890625q0 -0.03125 0 -0.265625q0 -0.25 0.015625 -0.4375q0.015625 -0.203125 0.0625 -0.46875q0.140625 -0.453125 0.578125 -0.453125q0.453125 0 0.578125 0.1875zm-1.1875 9.140625q0 -3.65625 0.375 -4.21875q0.125 -0.203125 0.3125 -0.203125q0.1875 0 0.609375 0.203125q-0.09375 1.59375 -0.09375 3.453125q0 0 0.046875 4.124998q0 0.578125 -0.25 0.8125q-0.25 0.234375 -0.46875 0.234375q-0.21875 0 -0.4375 -0.109375q-0.09375 -2.421873 -0.09375 -4.296873zm4.543747 0.8125q-0.03125 0.359375 -0.03125 0.5q0 1.1093731 0.671875 1.7343731q0.6875 0.609375 1.625 0.609375q0.9375 0 1.515625 -0.25q0.59375 -0.265625 0.84375 -0.5625q0.671875 -0.8437481 1.234375 -0.8437481q0.203125 0 0.484375 0.10937309q-0.1875 0.921875 -1.40625 1.671875q-1.21875 0.75 -3.0625 0.75q-1.3125 0 -2.25 -0.828125q-0.9375 -0.828125 -0.9375 -2.265623q0 -1.4375 0.5625 -2.78125q0.5625 -1.359375 1.640625 -2.3125q1.078125 -0.96875 2.1875 -0.96875q1.109375 0 1.78125 0.46875q0.6875 0.453125 0.6875 1.328125q0 1.625 -1.453125 2.6875q-1.4375 1.046875 -3.0625 1.046875q-0.421875 0 -1.03125 -0.09375zm1.421875 -0.625q0.875 0 1.5625 -0.546875q0.703125 -0.5625 0.984375 -1.171875q0.296875 -0.625 0.296875 -1.125q0 -0.515625 -0.40625 -0.890625q-0.390625 -0.390625 -0.90625 -0.390625q-0.9375 0 -1.734375 1.296875q-0.78125 1.28125 -1.125 2.65625q0.828125 0.171875 1.328125 0.171875zm11.136902 -3.0625q-0.171875 -0.421875 -0.640625 -0.65625q-0.453125 -0.25 -1.15625 -0.25q-0.6875 0 -1.296875 0.40625q-0.59375 0.40625 -0.59375 1.109375q0 0.6875 0.5625 1.09375q0.578125 0.390625 1.375 0.59375q0.8125 0.203125 1.640625 0.4375q0.828125 0.234375 1.390625 0.765625q0.5625 0.53125 0.5625 1.390625q0 1.2499981 -1.03125 1.9062481q-1.03125 0.65625 -2.484375 0.65625q-0.859375 0 -2.25 -0.46875q-1.390625 -0.46875 -1.390625 -1.125q0 -0.484375 0.8125 -0.484375q0.25 0 0.640625 0.296875q1.1875 0.875 2.4375 0.875q0.671875 0 1.15625 -0.21875q0.90625 -0.421875 0.90625 -1.375q0 -0.5781231 -0.578125 -0.9374981q-0.5625 -0.359375 -1.375 -0.5625q-0.8125 -0.203125 -1.640625 -0.4375q-0.8125 -0.25 -1.390625 -0.8125q-0.5625 -0.578125 -0.5625 -1.453125q0 -1.140625 1.015625 -1.84375q1.03125 -0.703125 2.546875 -0.703125q1.03125 0 1.859375 0.53125q0.828125 0.53125 0.828125 1.53125q0 0.671875 -0.765625 0.671875q-0.3125 0 -0.421875 -0.109375q-0.09375 -0.109375 -0.109375 -0.390625q0 -0.296875 -0.046875 -0.4375z" fill-rule="nonzero"/><path fill="#000000" fill-opacity="0.0" d="m135.17848 116.20998l-67.59055 -73.921265" fill-rule="evenodd"/><path stroke="#000000" stroke-width="1.0" stroke-linejoin="round" stroke-linecap="butt" d="m132.62099 113.41295l-65.03306 -71.12424" fill-rule="evenodd"/><path fill="#000000" stroke="#000000" stroke-width="1.0" stroke-linecap="butt" d="m134.84108 115.84097c-0.67048645 0.61306 -1.7109985 0.56651306 -2.324051 -0.10397339c-0.6130676 -0.6704788 -0.56651306 -1.7109909 0.10395813 -2.324051c0.67048645 -0.61306 1.7109985 -0.56651306 2.3240662 0.10396576c0.61305237 0.6704788 0.56651306 1.7109985 -0.10397339 2.3240585z" fill-rule="nonzero"/><path fill="#000000" fill-opacity="0.0" d="m343.58194 84.21506l82.14172 0l0 25.637794l-82.14172 0z" fill-rule="evenodd"/><path fill="#000000" d="m344.33194 89.697556q0 -0.90625 6.421875 -0.90625q1.484375 0 3.796875 0.125q2.3125 0.125 2.375 0.34375q-0.03125 0.84375 -1.546875 0.84375q-0.421875 0 -1.4375 -0.09375q-1.0 -0.09375 -1.71875 -0.09375q-0.71875 0 -0.71875 0.3125q0 4.015625 -0.1875 11.96875q-0.390625 0.265625 -1.15625 0.265625q-0.015625 -0.8125 -0.015625 -1.953125l0.09375 -8.0625q0 -1.453125 -0.046875 -2.4375q-0.390625 -0.03125 -1.015625 -0.03125q-0.625 0 -1.953125 0.109375q-1.3125 0.09375 -1.859375 0.09375q-1.03125 0 -1.03125 -0.484375zm14.350494 -1.296875q-0.015625 0.4375 -0.015625 0.96875q0 0.515625 0.0625 1.0625q-0.265625 0.296875 -0.71875 0.296875q-0.5625 0 -0.5625 -0.890625q0 -0.03125 0 -0.265625q0 -0.25 0.015625 -0.4375q0.015625 -0.203125 0.0625 -0.46875q0.140625 -0.453125 0.578125 -0.453125q0.453125 0 0.578125 0.1875zm-1.1875 9.140625q0 -3.65625 0.375 -4.21875q0.125 -0.203125 0.3125 -0.203125q0.1875 0 0.609375 0.203125q-0.09375 1.59375 -0.09375 3.453125q0 0 0.046875 4.125q0 0.578125 -0.25 0.8125q-0.25 0.234375 -0.46875 0.234375q-0.21875 0 -0.4375 -0.109375q-0.09375 -2.421875 -0.09375 -4.296875zm4.481262 -3.5625q0.203125 0 0.203125 2.46875q0 0.390625 -0.015625 1.25q0 0.859375 0 0.890625q0.171875 -2.109375 0.375 -2.875q0.203125 -0.765625 0.40625 -1.3125q0.203125 -0.546875 0.4375 -0.84375q0.609375 -0.765625 1.390625 -0.765625q0.984375 0 1.46875 0.984375q0.5 0.984375 0.515625 2.625q0.46875 -3.375 2.46875 -3.375q0.859375 0 1.203125 0.890625q0.359375 0.875 0.359375 2.078125l-0.046875 2.84375q0 2.796875 1.203125 2.796875l1.0625 -0.171875q0.09375 0 0.1875 0.015625q-0.1875 0.28125 -0.6875 0.4375q-0.5 0.15625 -0.984375 0.15625q-0.953125 0 -1.4375 -0.84375q-0.46875 -0.84375 -0.515625 -1.78125q-0.03125 -0.953125 -0.03125 -1.625l0.046875 -1.65625q0 -0.828125 -0.109375 -1.5625q-0.09375 -0.75 -0.53125 -0.75q-0.625 0 -1.21875 2.65625q-0.59375 2.65625 -0.71875 5.046875q-0.3125 0.328125 -0.796875 0.359375q-0.15625 0 -0.28125 -0.0625q-0.171875 -0.96875 -0.1875 -3.234375q0 -2.265625 -0.234375 -3.609375q-0.21875 -1.34375 -1.0 -1.34375q-0.515625 0 -0.859375 1.15625q-0.546875 1.8125 -0.96875 5.640625q-0.109375 0.890625 -0.171875 1.28125q-0.390625 0.328125 -0.796875 0.328125l-0.28125 -0.03125q-0.265625 -3.109375 -0.265625 -7.71875q0.203125 -0.34375 0.8125 -0.34375zm12.524872 4.375q-0.03125 0.359375 -0.03125 0.5q0 1.109375 0.671875 1.734375q0.6875 0.609375 1.625 0.609375q0.9375 0 1.515625 -0.25q0.59375 -0.265625 0.84375 -0.5625q0.671875 -0.84375 1.234375 -0.84375q0.203125 0 0.484375 0.109375q-0.1875 0.921875 -1.40625 1.671875q-1.21875 0.75 -3.0625 0.75q-1.3125 0 -2.25 -0.828125q-0.9375 -0.828125 -0.9375 -2.265625q0 -1.4375 0.5625 -2.78125q0.5625 -1.359375 1.640625 -2.3125q1.078125 -0.96875 2.1875 -0.96875q1.109375 0 1.78125 0.46875q0.6875 0.453125 0.6875 1.328125q0 1.625 -1.453125 2.6875q-1.4375 1.046875 -3.0625 1.046875q-0.421875 0 -1.03125 -0.09375zm1.421875 -0.625q0.875 0 1.5625 -0.546875q0.703125 -0.5625 0.984375 -1.171875q0.296875 -0.625 0.296875 -1.125q0 -0.515625 -0.40625 -0.890625q-0.390625 -0.390625 -0.90625 -0.390625q-0.9375 0 -1.734375 1.296875q-0.78125 1.28125 -1.125 2.65625q0.828125 0.171875 1.328125 0.171875zm15.35321 -3.0625q-0.171875 -0.421875 -0.640625 -0.65625q-0.453125 -0.25 -1.15625 -0.25q-0.6875 0 -1.296875 0.40625q-0.59375 0.40625 -0.59375 1.109375q0 0.6875 0.5625 1.09375q0.578125 0.390625 1.375 0.59375q0.8125 0.203125 1.640625 0.4375q0.828125 0.234375 1.390625 0.765625q0.5625 0.53125 0.5625 1.390625q0 1.25 -1.03125 1.90625q-1.03125 0.65625 -2.484375 0.65625q-0.859375 0 -2.25 -0.46875q-1.390625 -0.46875 -1.390625 -1.125q0 -0.484375 0.8125 -0.484375q0.25 0 0.640625 0.296875q1.1875 0.875 2.4375 0.875q0.671875 0 1.15625 -0.21875q0.90625 -0.421875 0.90625 -1.375q0 -0.578125 -0.578125 -0.9375q-0.5625 -0.359375 -1.375 -0.5625q-0.8125 -0.203125 -1.640625 -0.4375q-0.8125 -0.25 -1.390625 -0.8125q-0.5625 -0.578125 -0.5625 -1.453125q0 -1.140625 1.015625 -1.84375q1.03125 -0.703125 2.546875 -0.703125q1.03125 0 1.859375 0.53125q0.828125 0.53125 0.828125 1.53125q0 0.671875 -0.765625 0.671875q-0.3125 0 -0.421875 -0.109375q-0.09375 -0.109375 -0.109375 -0.390625q0 -0.296875 -0.046875 -0.4375zm4.0716248 -3.6875q0 -1.84375 -0.5 -2.484375q0.234375 -0.359375 0.828125 -0.359375q0.125 0 0.25 0.03125q0.46875 0.46875 0.46875 2.703125q0 1.203125 -0.109375 2.8125q-0.234375 2.796875 -0.234375 4.109375q0 3.515625 1.359375 3.515625q0 0 0.703125 -0.125q0.15625 0 0.265625 0.15625q-0.046875 0.671875 -1.09375 0.671875q-1.03125 0 -1.59375 -0.625q-0.546875 -0.625 -0.6875 -1.5625q-0.140625 -0.953125 -0.140625 -1.5625q0 -0.625 0.015625 -1.359375q0.015625 -0.734375 0.171875 -2.109375q0.296875 -2.8125 0.296875 -3.8125zm5.1433105 -2.578125q-0.015625 0.4375 -0.015625 0.96875q0 0.515625 0.0625 1.0625q-0.265625 0.296875 -0.71875 0.296875q-0.5625 0 -0.5625 -0.890625q0 -0.03125 0 -0.265625q0 -0.25 0.015625 -0.4375q0.015625 -0.203125 0.0625 -0.46875q0.140625 -0.453125 0.578125 -0.453125q0.453125 0 0.578125 0.1875zm-1.1875 9.140625q0 -3.65625 0.375 -4.21875q0.125 -0.203125 0.3125 -0.203125q0.1875 0 0.609375 0.203125q-0.09375 1.59375 -0.09375 3.453125q0 0 0.046875 4.125q0 0.578125 -0.25 0.8125q-0.25 0.234375 -0.46875 0.234375q-0.21875 0 -0.4375 -0.109375q-0.09375 -2.421875 -0.09375 -4.296875zm9.871857 -2.40625q-0.359375 0.359375 -0.71875 0.359375q-0.34375 0 -0.5625 -0.296875q-0.21875 -0.3125 -0.359375 -0.671875q-0.125 -0.375 -0.46875 -0.671875q-0.34375 -0.3125 -0.859375 -0.3125q-0.734375 0.0625 -1.328125 1.03125q-0.59375 0.953125 -0.875 2.109375q-0.28125 1.15625 -0.28125 2.1875q0 1.015625 0.5625 1.75q0.578125 0.734375 1.546875 0.734375q1.125 0 1.796875 -0.78125q0.265625 -0.34375 0.515625 -0.671875q0.59375 -0.78125 1.078125 -0.78125q0.171875 0 0.484375 0.09375q0 0.6875 -1.265625 1.8125q-1.25 1.125 -2.734375 1.125q-1.46875 0 -2.3125 -0.9375q-0.84375 -0.9375 -0.84375 -2.4375q0 -1.921875 0.921875 -3.84375q0.46875 -0.9375 1.265625 -1.53125q0.8125 -0.609375 1.796875 -0.609375q1.0 0 1.59375 0.671875q0.609375 0.65625 1.046875 1.671875zm2.9925842 3.21875q-0.03125 0.359375 -0.03125 0.5q0 1.109375 0.671875 1.734375q0.6875 0.609375 1.625 0.609375q0.9375 0 1.515625 -0.25q0.59375 -0.265625 0.84375 -0.5625q0.671875 -0.84375 1.234375 -0.84375q0.203125 0 0.484375 0.109375q-0.1875 0.921875 -1.40625 1.671875q-1.21875 0.75 -3.0625 0.75q-1.3125 0 -2.25 -0.828125q-0.9375 -0.828125 -0.9375 -2.265625q0 -1.4375 0.5625 -2.78125q0.5625 -1.359375 1.640625 -2.3125q1.078125 -0.96875 2.1875 -0.96875q1.109375 0 1.78125 0.46875q0.6875 0.453125 0.6875 1.328125q0 1.625 -1.453125 2.6875q-1.4375 1.046875 -3.0625 1.046875q-0.421875 0 -1.03125 -0.09375zm1.421875 -0.625q0.875 0 1.5625 -0.546875q0.703125 -0.5625 0.984375 -1.171875q0.296875 -0.625 0.296875 -1.125q0 -0.515625 -0.40625 -0.890625q-0.390625 -0.390625 -0.90625 -0.390625q-0.9375 0 -1.734375 1.296875q-0.78125 1.28125 -1.125 2.65625q0.828125 0.171875 1.328125 0.171875z" fill-rule="nonzero"/><path fill="#000000" fill-opacity="0.0" d="m326.51108 114.23081l17.070862 -17.196854" fill-rule="evenodd"/><path stroke="#000000" stroke-width="1.0" stroke-linejoin="round" stroke-linecap="butt" d="m329.18115 111.54104l14.400787 -14.50708" fill-rule="evenodd"/><path fill="#000000" stroke="#000000" stroke-width="1.0" stroke-linecap="butt" d="m326.8633 113.87595c-0.6447449 -0.64004517 -0.6485901 -1.6815948 -0.008544922 -2.3263626c0.64004517 -0.64476776 1.6816101 -0.6485977 2.326355 -0.008552551c0.6447754 0.64004517 0.6486206 1.6815948 0.008575439 2.3263626c-0.64004517 0.6447754 -1.6816101 0.6485977 -2.3263855 0.008552551z" fill-rule="nonzero"/><path fill="#000000" fill-opacity="0.0" d="m348.32504 132.97113l35.84253 0l0 25.637787l-35.84253 0z" fill-rule="evenodd"/><path fill="#000000" d="m350.96567 149.73488l-0.140625 -10.921875q0 -1.1875 4.828125 -1.1875q2.265625 0 3.796875 0.859375q1.546875 0.859375 1.546875 2.46875q0 1.0625 -0.828125 2.015625q-0.8125 0.9375 -1.828125 1.203125q1.28125 0.390625 2.21875 1.140625q0.953125 0.75 0.953125 1.953125q0 1.1875 -1.03125 2.09375q-1.984375 1.734375 -6.078125 1.734375q-3.4375 0 -3.4375 -1.359375zm1.21875 -5.5q1.15625 -0.453125 2.546875 -0.453125q0.65625 0 1.3125 0q0.984375 0 2.390625 -0.875q1.40625 -0.890625 1.40625 -1.703125q0 -1.1875 -1.5 -1.890625q-1.484375 -0.703125 -3.296875 -0.703125q-1.796875 0 -2.921875 0.421875q0 0.328125 0 0.96875q0 0.640625 0.03125 2.125q0.03125 1.484375 0.03125 2.109375zm7.96875 3.015625q0 -1.625 -3.515625 -2.359375q-1.796875 0.515625 -3.390625 0.515625q-0.53125 0 -1.03125 -0.0625q0.0625 2.21875 0.0625 4.515625q1.078125 0.25 2.1875 0.25q1.109375 0 1.96875 -0.140625q0.875 -0.140625 1.734375 -0.4375q0.875 -0.296875 1.421875 -0.890625q0.5625 -0.609375 0.5625 -1.390625zm4.5785217 -10.09375q-0.015625 0.4375 -0.015625 0.96875q0 0.515625 0.0625 1.0625q-0.265625 0.296875 -0.71875 0.296875q-0.5625 0 -0.5625 -0.890625q0 -0.03125 0 -0.265625q0 -0.25 0.015625 -0.4375q0.015625 -0.203125 0.0625 -0.46875q0.140625 -0.453125 0.578125 -0.453125q0.453125 0 0.578125 0.1875zm-1.1875 9.140625q0 -3.65625 0.375 -4.21875q0.125 -0.203125 0.3125 -0.203125q0.1875 0 0.609375 0.203125q-0.09375 1.59375 -0.09375 3.453125q0 0 0.046875 4.125q0 0.578125 -0.25 0.8125q-0.25 0.234375 -0.46875 0.234375q-0.21875 0 -0.4375 -0.109375q-0.09375 -2.421875 -0.09375 -4.296875zm11.262482 4.078125q-0.328125 0.34375 -0.765625 0.34375q-0.796875 0 -1.1875 -0.859375q-0.390625 -0.859375 -0.46875 -2.078125q-0.0625 -1.234375 -0.078125 -2.46875q-0.015625 -1.234375 -0.203125 -2.09375q-0.171875 -0.859375 -0.65625 -0.859375q-0.65625 0 -1.109375 1.1875q-0.453125 1.171875 -0.640625 2.609375q-0.515625 4.0 -1.0 4.484375q-0.34375 0.171875 -0.59375 0.171875q-0.234375 0 -0.40625 -0.046875q-0.390625 -1.71875 -0.5 -5.921875q-0.03125 -2.09375 -0.078125 -2.703125q0.390625 -0.265625 0.671875 -0.265625q0.28125 0 0.453125 0.0625q0.09375 0.796875 0.09375 3.28125q0.015625 2.484375 0.03125 2.859375q0.09375 -0.390625 0.234375 -1.265625q0.140625 -0.890625 0.25 -1.453125q0.109375 -0.5625 0.359375 -1.328125q0.25 -0.765625 0.546875 -1.21875q0.296875 -0.46875 0.8125 -0.796875q0.53125 -0.328125 1.171875 -0.328125q0.875 0 1.28125 0.796875q0.40625 0.796875 0.4375 1.96875q0.046875 1.171875 0.046875 2.390625q0.015625 1.21875 0.296875 2.21875q0.296875 1.0 1.0 1.3125z" fill-rule="nonzero"/><path fill="#000000" fill-opacity="0.0" d="m267.72662 130.23097l80.59842 15.5590515" fill-rule="evenodd"/><path stroke="#000000" stroke-width="1.0" stroke-linejoin="round" stroke-linecap="butt" d="m271.4479 130.94934l76.87714 14.840683" fill-rule="evenodd"/><path fill="#000000" stroke="#000000" stroke-width="1.0" stroke-linecap="butt" d="m268.21756 130.32574c0.1722107 -0.89204407 1.0349426 -1.4755859 1.9269714 -1.3033752c0.8920593 0.17219543 1.4755859 1.0349426 1.3033752 1.9269714c-0.17218018 0.89204407 -1.0349426 1.4755859 -1.9269714 1.3033905c-0.8920288 -0.1722107 -1.4755859 -1.0349426 -1.3033752 -1.9269867z" fill-rule="nonzero"/></g></svg>
